<?xml version="1.0" encoding="UTF-8"?>
<svg width="48px" height="48px" viewBox="0 0 48 48" version="1.1" xmlns="http://www.w3.org/2000/svg" xmlns:xlink="http://www.w3.org/1999/xlink">
    <!-- Generator: Sketch 62 (91390) - https://sketch.com -->
    <title>application</title>
    <desc>Created with Sketch.</desc>
    <g id="application" stroke="none" stroke-width="1" fill="none" fill-rule="evenodd">
        <rect id="Base" x="0" y="0" width="48" height="48"></rect>
        <path d="M6.85714286,4 L18.2857143,4 C19.8636707,4 21.1428571,5.27918643 21.1428571,6.85714286 L21.1428571,18.2857143 C21.1428571,19.8636707 19.8636707,21.1428571 18.2857143,21.1428571 L6.85714286,21.1428571 C5.27918643,21.1428571 4,19.8636707 4,18.2857143 L4,6.85714286 C4,5.27918643 5.27918643,4 6.85714286,4 Z M29.7142857,26.8571429 L41.1428571,26.8571429 C42.7208136,26.8571429 44,28.1363293 44,29.7142857 L44,41.1428571 C44,42.7208136 42.7208136,44 41.1428571,44 L29.7142857,44 C28.1363293,44 26.8571429,42.7208136 26.8571429,41.1428571 L26.8571429,29.7142857 C26.8571429,28.1363293 28.1363293,26.8571429 29.7142857,26.8571429 Z" id="Path" fill="#1565D8"></path>
        <path d="M29.7142857,4 L41.1428571,4 C42.7208136,4 44,5.27918643 44,6.85714286 L44,18.2857143 C44,19.8636707 42.7208136,21.1428571 41.1428571,21.1428571 L29.7142857,21.1428571 C28.1363293,21.1428571 26.8571429,19.8636707 26.8571429,18.2857143 L26.8571429,6.85714286 C26.8571429,5.27918643 28.1363293,4 29.7142857,4 Z M6.85714286,26.8571429 L18.2857143,26.8571429 C19.8636707,26.8571429 21.1428571,28.1363293 21.1428571,29.7142857 L21.1428571,41.1428571 C21.1428571,42.7208136 19.8636707,44 18.2857143,44 L6.85714286,44 C5.27918643,44 4,42.7208136 4,41.1428571 L4,29.7142857 C4,28.1363293 5.27918643,26.8571429 6.85714286,26.8571429 Z" id="Path" fill="#B4CCEF" fill-rule="nonzero"></path>
    </g>
</svg>