<svg xmlns="http://www.w3.org/2000/svg" width="18" height="17" viewBox="0 0 18 17">
    <g fill="none" fill-rule="evenodd">
        <path d="M0 0H24V24H0z" transform="translate(-3 -4)"/>
        <path fill="#183B56" fill-rule="nonzero" d="M12 10.695l6.222-6.223a1.1 1.1 0 011.641 1.46l-.085.096-6.223 6.222 6.223 6.222a1.1 1.1 0 01.085 1.46l-.085.096a1.1 1.1 0 01-1.46.085l-.096-.085L12 13.805l-6.222 6.223a1.1 1.1 0 01-1.46.085l-.096-.085a1.1 1.1 0 01-.085-1.46l.085-.096 6.223-6.222-6.223-6.222a1.1 1.1 0 01-.085-1.46l.085-.096a1.1 1.1 0 011.46-.085l.096.085L12 10.695l6.222-6.223L12 10.695z" transform="translate(-3 -4)"/>
    </g>
</svg>
