<svg xmlns="http://www.w3.org/2000/svg" width="22" height="18" viewBox="0 0 22 18">
    <g fill="none" fill-rule="evenodd">
        <path d="M0 0H24V24H0z" transform="translate(-1 -3)"/>
        <path fill="#3A4C66" fill-rule="nonzero" d="M21.91 18.497c.602 0 1.09.492 1.09 1.1 0 .607-.488 1.1-1.09 1.1H2.09c-.602 0-1.09-.493-1.09-1.1 0-.608.488-1.1 1.09-1.1zm0-7.749c.602 0 1.09.493 1.09 1.1 0 .608-.488 1.1-1.09 1.1H2.09c-.602 0-1.09-.492-1.09-1.1 0-.607.488-1.1 1.09-1.1zm0-7.748c.602 0 1.09.492 1.09 1.1 0 .608-.488 1.1-1.09 1.1H2.09C1.488 5.2 1 4.708 1 4.1 1 3.492 1.488 3 2.09 3z" transform="translate(-1 -3)"/>
    </g>
</svg>
