<?xml version="1.0" encoding="UTF-8"?>
<svg width="48px" height="48px" viewBox="0 0 48 48" version="1.1" xmlns="http://www.w3.org/2000/svg" xmlns:xlink="http://www.w3.org/1999/xlink">
    <!-- Generator: Sketch 62 (91390) - https://sketch.com -->
    <title>substract</title>
    <desc>Created with Sketch.</desc>
    <g id="substract" stroke="none" stroke-width="1" fill="none" fill-rule="evenodd">
        <rect id="Base" x="0" y="0" width="48" height="48"></rect>
        <path d="M30.6666667,32.5714286 L30.6666667,41.1428571 C30.6666667,42.7208136 29.3874802,44 27.8095238,44 L6.85714286,44 C5.27918643,44 4,42.7208136 4,41.1428571 L4,20.1904762 C4,18.6125198 5.27918643,17.3333333 6.85714286,17.3333333 L15.4285714,17.3333333 L15.4285714,27.8095238 C15.4285714,30.4394512 17.5605488,32.5714286 20.1904762,32.5714286 L30.6666667,32.5714286 Z" id="Path" fill="#B4CCEF" fill-rule="nonzero"></path>
        <path d="M20.1904762,4 L41.1428571,4 C42.7208136,4 44,5.27918643 44,6.85714286 L44,27.8095238 C44,29.3874802 42.7208136,30.6666667 41.1428571,30.6666667 L20.1904762,30.6666667 C18.6125198,30.6666667 17.3333333,29.3874802 17.3333333,27.8095238 L17.3333333,6.85714286 C17.3333333,5.27918643 18.6125198,4 20.1904762,4 Z" id="Path" fill="#1565D8"></path>
    </g>
</svg>