<?xml version="1.0" encoding="UTF-8"?>
<svg width="48px" height="48px" viewBox="0 0 48 48" version="1.1" xmlns="http://www.w3.org/2000/svg" xmlns:xlink="http://www.w3.org/1999/xlink">
    <!-- Generator: Sketch 62 (91390) - https://sketch.com -->
    <title>sync</title>
    <desc>Created with Sketch.</desc>
    <g id="sync" stroke="none" stroke-width="1" fill="none" fill-rule="evenodd">
        <rect id="Base" x="0" y="0" width="48" height="48"></rect>
        <path d="M10.0785712,16.2492439 L14.7661836,16.2492439 C15.5515485,16.2492439 16.1882126,16.8629801 16.1882126,17.620062 C16.1882126,18.3771439 15.5515485,18.9908801 14.7661836,18.9908801 L7.18202899,18.9908801 C6.39666407,18.9908801 5.76,18.3771439 5.76,17.620062 L5.76,10.3090322 C5.76,9.55195029 6.39666407,8.93821412 7.18202899,8.93821412 C7.96739392,8.93821412 8.60405798,9.55195029 8.60405798,10.3090322 L8.60405798,13.3560408 C13.2266551,6.98540968 21.8171809,4.0956254 29.7675521,6.73457221 C37.2471995,9.21727283 42.2428308,16.0018514 42.24,23.5896751 C42.24,24.346757 41.6028231,24.9602723 40.8174583,24.96 C40.0320934,24.9597275 39.3956584,24.3457706 39.395941,23.5886887 C39.398337,17.1689922 35.1706944,11.4276348 28.8416174,9.32684014 C21.5875624,6.91901985 13.7025903,9.95131237 10.0785712,16.2492439 L10.0785712,16.2492439 Z" id="Path" fill="#B4CCEF" fill-rule="nonzero"></path>
        <path d="M37.8739379,31.7296321 L33.2472236,31.7296321 C32.4630278,31.7296321 31.8273115,31.1146873 31.8273115,30.3561144 C31.8273115,29.5975415 32.4630278,28.9825967 33.2472236,28.9825967 L40.8200879,28.9825967 C41.6042837,28.9825967 42.24,29.5975415 42.24,30.3561144 L42.24,37.6815423 C42.24,38.4401152 41.6042837,39.0550601 40.8200879,39.0550601 C40.0358922,39.0550601 39.4001759,38.4401152 39.4001759,37.6815423 L39.4001759,34.5537582 C34.7948746,40.9941361 26.1775543,43.9162386 18.2138488,41.2637112 C10.759901,38.7809725 5.77521924,32.0041341 5.76,24.4161822 C5.75848153,23.6576107 6.39296344,23.0414741 7.17715775,23.04 C7.96135205,23.0385311 8.59830032,23.6522819 8.59982152,24.4108534 C8.61269559,30.8307103 12.8310567,36.5655054 19.1384051,38.6663382 C26.3760495,41.0770312 34.2529879,38.0454231 37.8739379,31.7296321 L37.8739379,31.7296321 Z" id="Path" fill="#1565D8"></path>
    </g>
</svg>