<?xml version="1.0" encoding="UTF-8"?>
<svg width="48px" height="48px" viewBox="0 0 48 48" version="1.1" xmlns="http://www.w3.org/2000/svg" xmlns:xlink="http://www.w3.org/1999/xlink">
    <!-- Generator: Sketch 62 (91390) - https://sketch.com -->
    <title>touch</title>
    <desc>Created with Sketch.</desc>
    <g id="touch" stroke="none" stroke-width="1" fill="none" fill-rule="evenodd">
        <rect id="Base" x="0" y="0" width="48" height="48"></rect>
        <g id="Group" transform="translate(9.000000, 1.500000)">
            <path d="M13.8200324,8.20299451 C15.5165819,8.20299451 16.8919069,9.54826847 16.8919069,11.207748 L16.8919069,23.2794688 C16.8919069,23.2794688 22.9943665,24.3230426 28.6647888,26.8648232 C32.4450704,28.5593436 32.4450704,34.6044026 28.6647888,45 L10.9017778,45 C2.7355845,38.4566627 -0.842821757,34.1241862 0.166558974,32.0025707 C1.17593971,29.8809551 4.70313933,30.2265564 10.7481578,33.0393745 L10.7481578,11.207748 C10.7481578,9.54826847 12.1234829,8.20299451 13.8200324,8.20299451 Z" id="Path" fill="#1565D8"></path>
            <path d="M13.8190601,3.37507799e-14 C19.7551037,3.37507799e-14 24.5672179,4.70696854 24.5672179,10.5133085 C24.5672179,14.404465 22.4060505,17.8018831 19.1937627,19.6197705 L19.193139,11.2642591 C19.193139,8.36108911 16.7870819,6.00760484 13.8190601,6.00760484 C10.8510382,6.00760484 8.44498116,8.36108911 8.44498116,11.2642591 L8.44587822,19.620631 C5.23275178,17.8029554 3.07090224,14.4050791 3.07090224,10.5133085 C3.07090224,4.70696854 7.88301641,3.37507799e-14 13.8190601,3.37507799e-14 Z" id="Path" fill="#B8D0F3"></path>
        </g>
    </g>
</svg>