<svg width="600" height="600" viewBox="0 0 600 600" fill="none" xmlns="http://www.w3.org/2000/svg">
<rect width="600" height="600" fill="#DCDCDC"/>
<path d="M230.908 309C231.1 308.928 231.328 308.772 231.592 308.532C231.88 308.268 232.024 307.764 232.024 307.02V298.056C232.024 296.544 231.748 295.344 231.196 294.456C230.644 293.544 229.936 293.088 229.072 293.088C228.688 293.088 228.316 293.148 227.956 293.268C227.596 293.388 227.272 293.544 226.984 293.736C226.72 293.904 226.492 294.084 226.3 294.276C226.108 294.444 225.964 294.6 225.868 294.744V306.984C225.868 307.368 225.904 307.68 225.976 307.92C226.072 308.16 226.168 308.352 226.264 308.496C226.384 308.64 226.504 308.748 226.624 308.82C226.768 308.892 226.888 308.952 226.984 309H220.324C220.516 308.928 220.744 308.76 221.008 308.496C221.296 308.232 221.44 307.728 221.44 306.984V294.636C221.44 294.252 221.392 293.94 221.296 293.7C221.224 293.46 221.128 293.268 221.008 293.124C220.888 292.98 220.768 292.872 220.648 292.8C220.528 292.704 220.42 292.644 220.324 292.62H222.772C223.42 292.62 223.936 292.524 224.32 292.332C224.728 292.116 224.932 291.756 224.932 291.252C224.932 290.748 224.872 290.172 224.752 289.524C224.632 288.852 224.38 288.228 223.996 287.652C223.636 287.076 223.12 286.596 222.448 286.212C221.8 285.804 220.936 285.6 219.856 285.6C219.568 285.6 219.28 285.636 218.992 285.708C218.704 285.78 218.464 285.9 218.272 286.068C218.08 286.236 217.936 286.44 217.84 286.68C217.768 286.896 217.78 287.172 217.876 287.508C217.9 287.628 217.912 287.796 217.912 288.012C217.912 288.708 217.672 289.296 217.192 289.776C216.712 290.232 216.136 290.46 215.464 290.46C214.768 290.46 214.18 290.232 213.7 289.776C213.244 289.296 213.016 288.708 213.016 288.012C213.016 287.34 213.16 286.752 213.448 286.248C213.76 285.72 214.156 285.276 214.636 284.916C215.14 284.556 215.716 284.292 216.364 284.124C217.012 283.932 217.696 283.836 218.416 283.836C219.52 283.836 220.528 283.992 221.44 284.304C222.352 284.616 223.132 285.084 223.78 285.708C224.452 286.332 224.968 287.112 225.328 288.048C225.688 288.96 225.868 290.028 225.868 291.252V293.448C226.684 292.8 227.464 292.38 228.208 292.188C228.976 291.996 229.66 291.9 230.26 291.9C230.908 291.9 231.592 292.02 232.312 292.26C233.056 292.476 233.728 292.848 234.328 293.376C234.952 293.88 235.456 294.552 235.84 295.392C236.248 296.208 236.452 297.204 236.452 298.38V306.984C236.452 307.368 236.488 307.68 236.56 307.92C236.656 308.16 236.764 308.352 236.884 308.496C237.004 308.64 237.124 308.748 237.244 308.82C237.388 308.892 237.508 308.952 237.604 309H230.908ZM217.66 306.984C217.66 307.368 217.696 307.68 217.768 307.92C217.864 308.16 217.972 308.352 218.092 308.496C218.212 308.64 218.332 308.748 218.452 308.82C218.596 308.892 218.716 308.952 218.812 309H212.116C212.212 308.952 212.32 308.892 212.44 308.82C212.584 308.748 212.704 308.64 212.8 308.496C212.92 308.352 213.016 308.16 213.088 307.92C213.184 307.68 213.232 307.368 213.232 306.984V294.636C213.232 294.252 213.184 293.94 213.088 293.7C213.016 293.46 212.92 293.268 212.8 293.124C212.704 292.98 212.584 292.872 212.44 292.8C212.32 292.704 212.212 292.644 212.116 292.62H217.66V306.984ZM257.207 291.936C258.263 291.936 259.283 292.116 260.267 292.476C261.275 292.836 262.163 293.388 262.931 294.132C263.723 294.876 264.359 295.8 264.839 296.904C265.319 298.008 265.559 299.316 265.559 300.828C265.559 302.364 265.307 303.696 264.803 304.824C264.299 305.928 263.639 306.84 262.823 307.56C262.031 308.28 261.119 308.808 260.087 309.144C259.079 309.504 258.047 309.684 256.991 309.684C256.031 309.684 255.155 309.576 254.363 309.36V316.344C254.363 316.728 254.399 317.04 254.471 317.28C254.567 317.52 254.675 317.712 254.795 317.856C254.915 318 255.035 318.108 255.155 318.18C255.299 318.252 255.419 318.3 255.515 318.324H248.819C248.915 318.3 249.023 318.252 249.143 318.18C249.287 318.108 249.407 318 249.503 317.856C249.623 317.712 249.719 317.52 249.791 317.28C249.887 317.04 249.935 316.728 249.935 316.344V294.6C249.935 294.216 249.887 293.904 249.791 293.664C249.719 293.424 249.623 293.232 249.503 293.088C249.407 292.944 249.287 292.836 249.143 292.764C249.023 292.692 248.915 292.644 248.819 292.62H253.895C254.759 292.164 255.863 291.936 257.207 291.936ZM257.063 308.82C257.543 308.82 258.011 308.652 258.467 308.316C258.923 307.98 259.331 307.476 259.691 306.804C260.051 306.132 260.339 305.304 260.555 304.32C260.795 303.312 260.915 302.148 260.915 300.828C260.915 298.476 260.495 296.604 259.655 295.212C258.815 293.796 257.651 293.088 256.163 293.088C255.635 293.088 255.035 293.244 254.363 293.556V295.464V302.412C254.363 304.62 254.567 306.24 254.975 307.272C255.407 308.304 256.103 308.82 257.063 308.82ZM277.278 291.9C278.046 291.9 278.754 292.02 279.402 292.26C280.05 292.5 280.602 292.836 281.058 293.268C281.538 293.676 281.898 294.168 282.138 294.744C282.402 295.32 282.534 295.944 282.534 296.616C282.534 297.264 282.306 297.816 281.85 298.272C281.394 298.728 280.842 298.956 280.194 298.956C279.546 298.956 278.982 298.728 278.502 298.272C278.046 297.816 277.818 297.264 277.818 296.616C277.818 295.368 277.734 294.42 277.566 293.772C277.422 293.124 277.062 292.8 276.486 292.8C275.526 292.8 274.71 293.448 274.038 294.744C273.39 296.016 273.066 298.02 273.066 300.756V306.12V306.984C273.066 307.368 273.102 307.68 273.174 307.92C273.27 308.16 273.378 308.352 273.498 308.496C273.618 308.64 273.738 308.748 273.858 308.82C274.002 308.892 274.122 308.952 274.218 309H273.066H268.638H267.522C267.618 308.952 267.726 308.892 267.846 308.82C267.99 308.748 268.11 308.64 268.206 308.496C268.326 308.352 268.422 308.16 268.494 307.92C268.59 307.68 268.638 307.368 268.638 306.984V294.636C268.638 294.252 268.59 293.94 268.494 293.7C268.422 293.46 268.326 293.268 268.206 293.124C268.11 292.98 267.99 292.872 267.846 292.8C267.726 292.704 267.618 292.644 267.522 292.62H268.638H273.066V294.744C273.474 293.736 274.038 293.016 274.758 292.584C275.502 292.128 276.342 291.9 277.278 291.9ZM292.712 291.864C293.912 291.864 295.016 292.104 296.024 292.584C297.032 293.04 297.896 293.676 298.616 294.492C299.336 295.284 299.9 296.22 300.308 297.3C300.716 298.38 300.92 299.532 300.92 300.756C300.92 301.98 300.716 303.132 300.308 304.212C299.9 305.292 299.336 306.24 298.616 307.056C297.896 307.848 297.032 308.484 296.024 308.964C295.016 309.42 293.912 309.648 292.712 309.648C291.512 309.648 290.408 309.42 289.4 308.964C288.392 308.484 287.516 307.848 286.772 307.056C286.052 306.24 285.488 305.292 285.08 304.212C284.672 303.132 284.468 301.98 284.468 300.756C284.468 299.532 284.672 298.38 285.08 297.3C285.488 296.22 286.052 295.284 286.772 294.492C287.516 293.676 288.392 293.04 289.4 292.584C290.408 292.104 291.512 291.864 292.712 291.864ZM292.712 308.748C293.384 308.748 293.948 308.496 294.404 307.992C294.86 307.464 295.22 306.816 295.484 306.048C295.772 305.256 295.976 304.392 296.096 303.456C296.216 302.52 296.276 301.62 296.276 300.756C296.276 299.892 296.216 298.992 296.096 298.056C295.976 297.12 295.772 296.268 295.484 295.5C295.22 294.708 294.86 294.06 294.404 293.556C293.948 293.052 293.384 292.8 292.712 292.8C292.04 292.8 291.476 293.052 291.02 293.556C290.564 294.06 290.192 294.708 289.904 295.5C289.616 296.268 289.412 297.12 289.292 298.056C289.172 298.992 289.112 299.892 289.112 300.756C289.112 301.62 289.172 302.52 289.292 303.456C289.412 304.392 289.616 305.256 289.904 306.048C290.192 306.816 290.564 307.464 291.02 307.992C291.476 308.496 292.04 308.748 292.712 308.748ZM316.285 307.848C317.005 307.848 317.689 307.92 318.337 308.064C318.985 308.208 319.549 308.448 320.029 308.784C320.533 309.096 320.929 309.504 321.217 310.008C321.529 310.512 321.685 311.124 321.685 311.844C321.685 313.02 321.325 314.064 320.605 314.976C319.909 315.888 318.985 316.656 317.833 317.28C316.705 317.904 315.421 318.372 313.981 318.684C312.541 319.02 311.089 319.188 309.625 319.188C308.377 319.188 307.321 319.056 306.457 318.792C305.593 318.552 304.885 318.228 304.333 317.82C303.781 317.436 303.373 316.992 303.109 316.488C302.869 315.984 302.749 315.48 302.749 314.976C302.749 314.352 302.965 313.824 303.397 313.392C303.829 312.96 304.357 312.744 304.981 312.744C305.605 312.744 306.121 312.96 306.529 313.392C306.961 313.824 307.177 314.352 307.177 314.976C307.177 315.504 307.285 315.936 307.501 316.272C307.741 316.632 308.053 316.908 308.437 317.1C308.845 317.316 309.313 317.46 309.841 317.532C310.393 317.628 310.993 317.676 311.641 317.676C312.649 317.676 313.633 317.556 314.593 317.316C315.577 317.1 316.441 316.788 317.185 316.38C317.929 315.972 318.529 315.48 318.985 314.904C319.441 314.328 319.669 313.692 319.669 312.996C319.669 312.492 319.441 312.144 318.985 311.952C318.553 311.784 318.025 311.7 317.401 311.7C316.825 311.7 316.213 311.748 315.565 311.844C314.917 311.964 314.245 312.084 313.549 312.204C312.853 312.324 312.133 312.432 311.389 312.528C310.645 312.648 309.889 312.708 309.121 312.708C308.401 312.708 307.729 312.624 307.105 312.456C306.481 312.288 305.929 312.048 305.449 311.736C304.993 311.424 304.621 311.052 304.333 310.62C304.069 310.188 303.937 309.708 303.937 309.18C303.937 308.196 304.213 307.404 304.765 306.804C305.341 306.18 306.061 305.7 306.925 305.364C305.917 304.74 305.113 303.936 304.513 302.952C303.913 301.944 303.613 300.732 303.613 299.316C303.613 298.116 303.841 297.06 304.297 296.148C304.753 295.212 305.365 294.432 306.133 293.808C306.901 293.184 307.777 292.716 308.761 292.404C309.745 292.092 310.777 291.936 311.857 291.936C312.409 291.936 312.937 291.972 313.441 292.044C313.969 292.116 314.485 292.248 314.989 292.44C314.989 291.672 315.109 291 315.349 290.424C315.589 289.824 315.913 289.332 316.321 288.948C316.729 288.54 317.185 288.24 317.689 288.048C318.217 287.832 318.769 287.724 319.345 287.724C320.017 287.724 320.617 287.916 321.145 288.3C321.697 288.684 321.973 289.212 321.973 289.884C321.973 290.46 321.769 290.952 321.361 291.36C320.953 291.768 320.461 291.972 319.885 291.972C319.429 291.972 319.033 291.84 318.697 291.576C318.433 291.384 318.145 291.252 317.833 291.18C317.521 291.108 317.221 291.12 316.933 291.216C316.669 291.312 316.441 291.492 316.249 291.756C316.081 291.996 315.997 292.356 315.997 292.836C317.197 293.388 318.169 294.216 318.913 295.32C319.681 296.4 320.065 297.732 320.065 299.316C320.065 300.516 319.837 301.584 319.381 302.52C318.925 303.432 318.313 304.2 317.545 304.824C316.801 305.448 315.925 305.916 314.917 306.228C313.933 306.54 312.913 306.696 311.857 306.696C311.569 306.696 311.281 306.684 310.993 306.66C310.705 306.636 310.429 306.6 310.165 306.552C309.565 306.48 308.989 306.456 308.437 306.48C307.909 306.504 307.441 306.576 307.033 306.696C306.625 306.792 306.301 306.936 306.061 307.128C305.821 307.32 305.701 307.548 305.701 307.812C305.701 308.196 305.965 308.46 306.493 308.604C307.021 308.724 307.597 308.784 308.221 308.784C308.581 308.784 309.073 308.736 309.697 308.64C310.321 308.544 311.005 308.436 311.749 308.316C312.493 308.196 313.261 308.088 314.053 307.992C314.845 307.896 315.589 307.848 316.285 307.848ZM311.857 292.8C311.233 292.8 310.693 293.004 310.237 293.412C309.781 293.796 309.409 294.3 309.121 294.924C308.833 295.548 308.617 296.244 308.473 297.012C308.329 297.78 308.257 298.548 308.257 299.316C308.257 300.324 308.377 301.32 308.617 302.304C308.857 303.288 309.229 304.104 309.733 304.752C310.309 304.68 310.873 304.644 311.425 304.644C311.593 304.644 311.905 304.68 312.361 304.752C312.817 304.8 313.249 304.896 313.657 305.04C314.257 304.44 314.701 303.612 314.989 302.556C315.277 301.476 315.421 300.396 315.421 299.316C315.421 298.548 315.349 297.78 315.205 297.012C315.061 296.244 314.845 295.548 314.557 294.924C314.269 294.3 313.897 293.796 313.441 293.412C313.009 293.004 312.481 292.8 311.857 292.8ZM331.77 291.9C332.538 291.9 333.246 292.02 333.894 292.26C334.542 292.5 335.094 292.836 335.55 293.268C336.03 293.676 336.39 294.168 336.63 294.744C336.894 295.32 337.026 295.944 337.026 296.616C337.026 297.264 336.798 297.816 336.342 298.272C335.886 298.728 335.334 298.956 334.686 298.956C334.038 298.956 333.474 298.728 332.994 298.272C332.538 297.816 332.31 297.264 332.31 296.616C332.31 295.368 332.226 294.42 332.058 293.772C331.914 293.124 331.554 292.8 330.978 292.8C330.018 292.8 329.202 293.448 328.53 294.744C327.882 296.016 327.558 298.02 327.558 300.756V306.12V306.984C327.558 307.368 327.594 307.68 327.666 307.92C327.762 308.16 327.87 308.352 327.99 308.496C328.11 308.64 328.23 308.748 328.35 308.82C328.494 308.892 328.614 308.952 328.71 309H327.558H323.13H322.014C322.11 308.952 322.218 308.892 322.338 308.82C322.482 308.748 322.602 308.64 322.698 308.496C322.818 308.352 322.914 308.16 322.986 307.92C323.082 307.68 323.13 307.368 323.13 306.984V294.636C323.13 294.252 323.082 293.94 322.986 293.7C322.914 293.46 322.818 293.268 322.698 293.124C322.602 292.98 322.482 292.872 322.338 292.8C322.218 292.704 322.11 292.644 322.014 292.62H323.13H327.558V294.744C327.966 293.736 328.53 293.016 329.25 292.584C329.994 292.128 330.834 291.9 331.77 291.9ZM354.368 298.056C354.368 299.016 354.044 299.772 353.396 300.324C352.748 300.852 351.944 301.116 350.984 301.116H343.604C343.628 302.22 343.76 303.228 344 304.14C344.264 305.052 344.612 305.832 345.044 306.48C345.5 307.128 346.04 307.632 346.664 307.992C347.288 308.328 347.984 308.496 348.752 308.496C349.088 308.496 349.448 308.46 349.832 308.388C350.216 308.292 350.6 308.148 350.984 307.956C351.392 307.764 351.776 307.5 352.136 307.164C352.496 306.828 352.796 306.396 353.036 305.868C353.036 306.252 352.928 306.672 352.712 307.128C352.496 307.56 352.148 307.968 351.668 308.352C351.212 308.736 350.612 309.048 349.868 309.288C349.148 309.552 348.284 309.684 347.276 309.684C346.244 309.684 345.224 309.504 344.216 309.144C343.208 308.784 342.32 308.232 341.552 307.488C340.784 306.744 340.16 305.82 339.68 304.716C339.2 303.588 338.96 302.268 338.96 300.756C338.96 299.22 339.212 297.9 339.716 296.796C340.22 295.668 340.868 294.744 341.66 294.024C342.476 293.304 343.388 292.776 344.396 292.44C345.428 292.08 346.46 291.9 347.492 291.9C348.548 291.9 349.496 292.044 350.336 292.332C351.2 292.62 351.92 293.04 352.496 293.592C353.096 294.12 353.552 294.768 353.864 295.536C354.2 296.28 354.368 297.12 354.368 298.056ZM350.948 300.18C350.948 299.388 350.888 298.56 350.768 297.696C350.672 296.808 350.492 296.004 350.228 295.284C349.964 294.564 349.604 293.976 349.148 293.52C348.716 293.04 348.152 292.8 347.456 292.8C347 292.8 346.544 292.956 346.088 293.268C345.656 293.58 345.26 294.048 344.9 294.672C344.54 295.296 344.24 296.064 344 296.976C343.784 297.888 343.652 298.956 343.604 300.18H350.948ZM372.805 305.76C372.805 304.44 372.625 303.408 372.265 302.664C371.905 301.92 371.449 301.332 370.897 300.9C370.345 300.468 369.757 300.132 369.133 299.892C368.509 299.652 367.921 299.388 367.369 299.1C366.817 298.788 366.361 298.404 366.001 297.948C365.641 297.492 365.461 296.832 365.461 295.968C365.461 294.912 365.185 294.12 364.633 293.592C364.081 293.064 363.349 292.8 362.437 292.8C361.525 292.8 360.757 293.028 360.133 293.484C359.533 293.916 359.233 294.444 359.233 295.068C359.233 295.596 359.509 296.076 360.061 296.508C360.637 296.94 361.345 297.36 362.185 297.768C363.049 298.152 363.973 298.56 364.957 298.992C365.965 299.424 366.889 299.904 367.729 300.432C368.593 300.96 369.301 301.572 369.853 302.268C370.429 302.964 370.717 303.78 370.717 304.716C370.717 305.34 370.537 305.952 370.177 306.552C369.841 307.152 369.349 307.68 368.701 308.136C368.053 308.592 367.261 308.952 366.325 309.216C365.413 309.504 364.381 309.648 363.229 309.648C362.149 309.648 361.201 309.54 360.385 309.324C359.593 309.132 358.921 308.856 358.369 308.496C357.841 308.136 357.433 307.728 357.145 307.272C356.881 306.792 356.749 306.288 356.749 305.76C356.749 305.112 356.977 304.56 357.433 304.104C357.889 303.624 358.441 303.384 359.089 303.384C359.737 303.384 360.289 303.624 360.745 304.104C361.225 304.56 361.465 305.112 361.465 305.76C361.465 306.888 361.741 307.668 362.293 308.1C362.845 308.532 363.529 308.748 364.345 308.748C364.729 308.748 365.113 308.7 365.497 308.604C365.905 308.484 366.265 308.328 366.577 308.136C366.913 307.944 367.177 307.716 367.369 307.452C367.585 307.164 367.693 306.84 367.693 306.48C367.693 305.904 367.417 305.412 366.865 305.004C366.337 304.572 365.665 304.164 364.849 303.78C364.033 303.396 363.157 303.012 362.221 302.628C361.285 302.22 360.409 301.764 359.593 301.26C358.777 300.732 358.093 300.132 357.541 299.46C357.013 298.764 356.749 297.936 356.749 296.976C356.749 296.112 356.917 295.368 357.253 294.744C357.613 294.096 358.093 293.568 358.693 293.16C359.317 292.752 360.037 292.452 360.853 292.26C361.669 292.044 362.545 291.936 363.481 291.936C364.417 291.936 365.293 292.044 366.109 292.26C366.925 292.476 367.621 292.764 368.197 293.124C368.797 293.484 369.265 293.916 369.601 294.42C369.961 294.9 370.141 295.416 370.141 295.968C370.141 297.288 370.321 298.32 370.681 299.064C371.041 299.808 371.497 300.396 372.049 300.828C372.601 301.236 373.189 301.56 373.813 301.8C374.437 302.016 375.025 302.268 375.577 302.556C376.129 302.844 376.585 303.228 376.945 303.708C377.305 304.164 377.485 304.848 377.485 305.76C377.485 306.888 377.761 307.668 378.313 308.1C378.889 308.532 379.573 308.748 380.365 308.748C380.773 308.748 381.169 308.7 381.553 308.604C381.961 308.484 382.321 308.328 382.633 308.136C382.945 307.944 383.197 307.716 383.389 307.452C383.605 307.164 383.713 306.84 383.713 306.48C383.713 305.904 383.437 305.412 382.885 305.004C382.357 304.572 381.685 304.164 380.869 303.78C380.077 303.396 379.201 303.012 378.241 302.628C377.305 302.22 376.429 301.764 375.613 301.26C374.821 300.732 374.149 300.132 373.597 299.46C373.069 298.764 372.805 297.936 372.805 296.976C372.805 296.112 372.973 295.368 373.309 294.744C373.669 294.096 374.149 293.568 374.749 293.16C375.373 292.752 376.093 292.452 376.909 292.26C377.725 292.044 378.601 291.936 379.537 291.936C380.473 291.936 381.337 292.044 382.129 292.26C382.945 292.476 383.653 292.764 384.253 293.124C384.853 293.484 385.321 293.916 385.657 294.42C386.017 294.9 386.197 295.416 386.197 295.968C386.197 296.616 385.969 297.168 385.513 297.624C385.057 298.08 384.505 298.308 383.857 298.308C383.209 298.308 382.645 298.08 382.165 297.624C381.709 297.168 381.481 296.616 381.481 295.968C381.481 294.912 381.205 294.12 380.653 293.592C380.125 293.064 379.405 292.8 378.493 292.8C377.557 292.8 376.789 293.028 376.189 293.484C375.589 293.916 375.289 294.444 375.289 295.068C375.289 295.596 375.565 296.076 376.117 296.508C376.693 296.94 377.401 297.36 378.241 297.768C379.105 298.152 380.029 298.56 381.013 298.992C382.021 299.424 382.945 299.904 383.785 300.432C384.649 300.96 385.357 301.572 385.909 302.268C386.485 302.964 386.773 303.78 386.773 304.716C386.773 305.34 386.593 305.952 386.233 306.552C385.897 307.152 385.393 307.68 384.721 308.136C384.073 308.592 383.281 308.952 382.345 309.216C381.433 309.504 380.401 309.648 379.249 309.648C378.193 309.648 377.257 309.54 376.441 309.324C375.649 309.132 374.977 308.856 374.425 308.496C373.897 308.136 373.489 307.728 373.201 307.272C372.937 306.792 372.805 306.288 372.805 305.76Z" fill="black"/>
</svg>
