<svg width="247" height="82" viewBox="0 0 247 82" fill="none" xmlns="http://www.w3.org/2000/svg">
<path d="M70.5312 67.1465C70.4375 68.0137 69.8047 68.7227 68.6328 69.2734C68.4805 69.3438 68.3516 69.3965 68.2461 69.4316C68.1523 69.4551 68.0234 69.4668 67.8594 69.4668C67.7539 69.4668 67.6543 69.4668 67.5605 69.4668C67.4668 69.4551 67.4023 69.4434 67.3672 69.4316C67.0742 69.2793 67.0508 68.9922 67.2969 68.5703C67.4492 68.3242 67.7539 67.9902 68.2109 67.5684C68.668 67.1348 69.1074 66.7715 69.5293 66.4785C69.5645 66.4551 69.5938 66.4316 69.6172 66.4082C69.6523 66.3848 69.6758 66.3672 69.6875 66.3555C69.7109 66.3438 69.7227 66.3379 69.7227 66.3379C69.7227 66.3262 69.6582 66.2793 69.5293 66.1973C69.4355 66.1387 69.3301 66.0684 69.2129 65.9863C68.8613 65.7754 68.5977 65.5996 68.4219 65.459C68.2461 65.3184 68.123 65.1719 68.0527 65.0195C67.9707 64.9141 67.9238 64.8262 67.9121 64.7559C67.8887 64.6738 67.877 64.5508 67.877 64.3867C67.877 64.1758 67.9062 63.9766 67.9648 63.7891C68.0234 63.5898 68.123 63.3496 68.2637 63.0684C68.5098 62.6348 68.8145 62.2129 69.1777 61.8027C69.5527 61.3809 69.8867 61.0879 70.1797 60.9238C70.9062 60.5957 71.3809 60.8008 71.6035 61.5391C71.6738 61.8789 71.668 62.2363 71.5859 62.6113C71.5156 62.9746 71.3809 63.291 71.1816 63.5605C71.0645 63.7012 70.9238 63.7656 70.7598 63.7539C70.6074 63.7305 70.4844 63.6309 70.3906 63.4551C70.2852 63.2676 70.3145 63.0801 70.4785 62.8926C70.6191 62.7051 70.6895 62.3945 70.6895 61.9609C70.6895 61.8438 70.6836 61.7617 70.6719 61.7148C70.6602 61.668 70.6367 61.6445 70.6016 61.6445C70.543 61.6445 70.4141 61.7266 70.2148 61.8906C70.0273 62.043 69.8281 62.2305 69.6172 62.4531C69.4062 62.6758 69.2246 62.8926 69.0723 63.1035C68.9316 63.3027 68.8027 63.5137 68.6855 63.7363C68.5801 63.959 68.5098 64.1348 68.4746 64.2637C68.4512 64.5215 68.5332 64.7734 68.7207 65.0195C68.7676 65.0664 68.8555 65.1426 68.9844 65.248C69.1133 65.3418 69.2598 65.4414 69.4238 65.5469C69.5762 65.6641 69.7051 65.7695 69.8105 65.8633C69.9277 65.9453 69.998 65.998 70.0215 66.0215C70.0215 66.0449 70.0742 66.0273 70.1797 65.9688C70.2969 65.9102 70.4961 65.793 70.7773 65.6172C71.6328 65.043 72.3945 64.5742 73.0625 64.2109C73.7305 63.8477 74.1523 63.666 74.3281 63.666C74.4922 63.666 74.5625 63.7539 74.5391 63.9297C74.5391 63.9766 74.5273 64.0176 74.5039 64.0527C74.4922 64.0762 74.4512 64.1055 74.3809 64.1406C74.3223 64.1641 74.2227 64.1934 74.082 64.2285C73.2734 64.5332 72.1777 65.1367 70.7949 66.0391L70.3203 66.3379L70.4434 66.584C70.4902 66.666 70.5195 66.748 70.5312 66.8301C70.543 66.9004 70.543 67.0059 70.5312 67.1465ZM68.2637 68.9746C68.8848 68.7402 69.3711 68.4238 69.7227 68.0254C70.0859 67.627 70.2266 67.2461 70.1445 66.8828C70.1328 66.8242 70.1152 66.7715 70.0918 66.7246C70.0684 66.6777 70.0508 66.6484 70.0391 66.6367C70.0039 66.6133 69.8809 66.6719 69.6699 66.8125C69.4707 66.9531 69.2363 67.1289 68.9668 67.3398C68.709 67.5508 68.4805 67.7559 68.2812 67.9551C67.8242 68.4121 67.5664 68.7461 67.5078 68.957C67.4961 69.0039 67.4961 69.0391 67.5078 69.0625C67.5078 69.0742 67.5254 69.0801 67.5605 69.0801C67.584 69.0801 67.6367 69.0801 67.7188 69.0801C67.7891 69.0801 67.877 69.0742 67.9824 69.0625C68.0879 69.0391 68.1816 69.0098 68.2637 68.9746ZM84.3652 63.7891C84.3652 63.7891 84.3652 63.8008 84.3652 63.8242C84.377 63.8477 84.377 63.877 84.3652 63.9121C84.3652 63.9473 84.3477 63.9883 84.3125 64.0352C84.2773 64.0703 84.2246 64.1113 84.1543 64.1582C83.3457 64.627 82.332 65.0488 81.1133 65.4238C79.8945 65.7988 78.7812 65.8867 77.7734 65.6875C77.7266 65.6758 77.6855 65.6875 77.6504 65.7227C77.6152 65.7461 77.5742 65.8105 77.5273 65.916C77.3633 66.2559 77.1406 66.5781 76.8594 66.8828C76.5898 67.1758 76.3203 67.3926 76.0508 67.5332C75.875 67.6035 75.6934 67.6504 75.5059 67.6738C75.3184 67.6973 75.1543 67.6914 75.0137 67.6562C74.5215 67.4805 74.1934 67.0527 74.0293 66.373C73.959 66.0918 73.9355 65.7285 73.959 65.2832C73.9707 64.8379 74.0176 64.4512 74.0996 64.123C74.2754 63.5488 74.5215 63.0332 74.8379 62.5762C75.1543 62.1191 75.4941 61.8027 75.8574 61.627C75.998 61.5684 76.1504 61.5332 76.3145 61.5215C76.4785 61.5098 76.625 61.5215 76.7539 61.5566C76.8477 61.5918 76.9531 61.668 77.0703 61.7852C77.1875 61.9023 77.2754 62.0195 77.334 62.1367C77.4512 62.3711 77.5156 62.6348 77.5273 62.9277C77.5391 63.2207 77.5039 63.4199 77.4219 63.5254C77.375 63.584 77.3516 63.6191 77.3516 63.6309C77.3516 63.6426 77.375 63.6484 77.4219 63.6484C77.4922 63.6484 77.5684 63.6895 77.6504 63.7715C77.7441 63.8418 77.8086 63.9238 77.8438 64.0176C77.8906 64.1348 77.9141 64.2871 77.9141 64.4746C77.9141 64.6621 77.8906 64.8496 77.8438 65.0371C77.8203 65.1309 77.8027 65.2129 77.791 65.2832C77.7793 65.3418 77.7793 65.3711 77.791 65.3711C78.7637 65.5586 79.8945 65.4473 81.1836 65.0371C82.4844 64.6152 83.4453 64.1875 84.0664 63.7539C84.1016 63.7305 84.1367 63.7129 84.1719 63.7012C84.207 63.6895 84.2363 63.6895 84.2598 63.7012C84.2949 63.7129 84.3184 63.7305 84.3301 63.7539C84.3535 63.7656 84.3652 63.7773 84.3652 63.7891ZM76.9297 65.6699L77.0352 65.4238L76.877 65.3184C76.6543 65.1309 76.5254 64.9082 76.4902 64.6504C76.4551 64.3926 76.5254 64.1523 76.7012 63.9297L76.8594 63.7539L76.7012 63.6133C76.6895 63.6016 76.6777 63.5898 76.666 63.5781C76.6191 63.543 76.584 63.5078 76.5605 63.4727C76.5371 63.4375 76.5195 63.3906 76.5078 63.332C76.5078 63.2734 76.5078 63.1855 76.5078 63.0684C76.5078 62.916 76.4902 62.7754 76.4551 62.6465C76.4199 62.5059 76.3848 62.4355 76.3496 62.4355C76.291 62.4355 76.1855 62.4883 76.0332 62.5938C75.8809 62.6992 75.7402 62.8164 75.6113 62.9453C75.2246 63.3555 74.9316 63.8594 74.7324 64.457C74.627 64.7617 74.5625 65.0957 74.5391 65.459C74.5156 65.8223 74.5332 66.127 74.5918 66.373C74.7676 66.9121 75.0195 67.1816 75.3477 67.1816C75.3828 67.1816 75.4355 67.1699 75.5059 67.1465C75.5762 67.1113 75.6465 67.0762 75.7168 67.041C75.9512 66.9355 76.1797 66.7598 76.4023 66.5137C76.625 66.2559 76.8008 65.9746 76.9297 65.6699ZM77.2285 64.8789C77.2402 64.8086 77.252 64.7324 77.2637 64.6504C77.2754 64.5684 77.2812 64.5039 77.2812 64.457C77.2812 64.1875 77.1934 64.1523 77.0176 64.3516C76.9707 64.3984 76.9414 64.4453 76.9297 64.4922C76.918 64.5273 76.9121 64.5742 76.9121 64.6328C76.9238 64.7031 76.9414 64.7734 76.9648 64.8438C76.9883 64.9141 77.0176 64.9727 77.0527 65.0195C77.0879 65.0664 77.123 65.0898 77.1582 65.0898C77.1699 65.0898 77.1816 65.0723 77.1934 65.0371C77.2051 64.9902 77.2168 64.9375 77.2285 64.8789ZM83.2578 71.8398C83.2578 71.5938 83.2578 71.4004 83.2578 71.2598C83.2461 71.1074 83.2402 70.9961 83.2402 70.9258C83.2285 70.8555 83.2168 70.8086 83.2051 70.7852C83.1816 70.75 83.1641 70.7324 83.1523 70.7324C83.1406 70.7324 83.082 70.7266 82.9766 70.7148C82.8711 70.7031 82.7598 70.6914 82.6426 70.6797C82.5137 70.668 82.2676 70.6562 81.9043 70.6445C81.541 70.6328 81.166 70.627 80.7793 70.627C80.2754 70.6152 79.9004 70.6035 79.6543 70.5918C79.4082 70.5801 79.2383 70.5566 79.1445 70.5215C79.0391 70.4746 78.9629 70.4102 78.916 70.3281C78.5996 69.9414 78.9336 69.4199 79.918 68.7637C80.2109 68.5645 80.6387 68.3125 81.2012 68.0078C81.752 67.7031 82.291 67.416 82.8184 67.1465L83.5742 66.7949L83.6797 66.0391C83.7734 65.4766 83.9199 64.668 84.1191 63.6133C84.3184 62.5586 84.5117 61.5742 84.6992 60.6602C84.8867 59.7344 85.0098 59.1719 85.0684 58.9727C85.2207 58.6562 85.4551 58.5684 85.7715 58.709C85.877 58.7559 85.9473 58.8262 85.9824 58.9199C86.0176 59.0137 86.0117 59.1777 85.9648 59.4121C85.9297 59.6465 85.8535 59.998 85.7363 60.4668C85.4434 61.791 85.168 63.0625 84.9102 64.2812C84.6523 65.4883 84.5234 66.168 84.5234 66.3203C84.5234 66.332 84.5938 66.3145 84.7344 66.2676C84.875 66.209 85.0566 66.1328 85.2793 66.0391C85.7949 65.8164 86.5039 65.5293 87.4062 65.1777C88.3086 64.8145 89.1582 64.4805 89.9551 64.1758C90.752 63.8711 91.1914 63.7188 91.2734 63.7188C91.2969 63.7188 91.3262 63.7363 91.3613 63.7715C91.3965 63.7949 91.4258 63.8301 91.4492 63.877C91.4727 63.9238 91.4844 63.9648 91.4844 64C91.4844 64.0234 91.4727 64.0527 91.4492 64.0879C91.4258 64.123 91.4023 64.1523 91.3789 64.1758C91.3438 64.1992 91.1914 64.2578 90.9219 64.3516C90.6641 64.4453 90.3535 64.5508 89.9902 64.668C89.0527 64.9961 88.2207 65.3008 87.4941 65.582C86.7676 65.8633 86 66.1797 85.1914 66.5312C84.9688 66.625 84.7988 66.7012 84.6816 66.7598C84.5762 66.8184 84.5 66.8652 84.4531 66.9004C84.418 66.9355 84.3945 66.9766 84.3828 67.0234C84.3594 67.1875 84.3184 67.498 84.2598 67.9551C84.2012 68.4004 84.1484 68.8516 84.1016 69.3086C84.0547 69.7539 84.0312 70.0293 84.0312 70.1348C84.0312 70.1699 84.043 70.1992 84.0664 70.2227C84.0781 70.2344 84.1074 70.252 84.1543 70.2754C84.2129 70.2871 84.3008 70.3047 84.418 70.3281C84.9219 70.4453 85.4375 70.5977 85.9648 70.7852C86.4922 70.9727 86.9199 71.1543 87.248 71.3301C87.4473 71.459 87.6523 71.623 87.8633 71.8223C88.0859 72.0215 88.2559 72.209 88.373 72.3848C88.9941 73.416 88.9941 74.6992 88.373 76.2344C87.7402 77.7109 86.9434 78.3789 85.9824 78.2383C85.3027 78.0742 84.7109 77.4883 84.207 76.4805C83.6211 75.3203 83.3047 73.7734 83.2578 71.8398ZM84.0137 70.8906C83.9902 70.8906 83.9785 71.002 83.9785 71.2246C83.9785 71.4473 83.9844 71.7168 83.9961 72.0332C84.0078 72.3496 84.0254 72.6543 84.0488 72.9473C84.0605 73.2402 84.0723 73.4746 84.084 73.6504C84.377 75.6426 84.957 76.9375 85.8242 77.5352C86.0938 77.6992 86.3809 77.7051 86.6855 77.5527C86.9902 77.3887 87.2832 77.0488 87.5645 76.5332C87.8574 76.0176 88.0566 75.4609 88.1621 74.8633C88.5254 73.1406 87.7168 71.9746 85.7363 71.3652C85.6074 71.3066 85.4141 71.2422 85.1562 71.1719C84.8984 71.1016 84.6523 71.0371 84.418 70.9785C84.1836 70.9199 84.0488 70.8906 84.0137 70.8906ZM80.0234 69.9238C80.2578 69.9238 80.5801 69.9355 80.9902 69.959C81.4004 69.9707 81.7871 69.9883 82.1504 70.0117C82.5137 70.0234 82.7539 70.041 82.8711 70.0645C82.9297 70.0762 82.9883 70.082 83.0469 70.082C83.1172 70.0938 83.1699 70.1055 83.2051 70.1172C83.2285 70.1172 83.252 70.0176 83.2754 69.8184C83.2754 69.7246 83.2812 69.6074 83.293 69.4668C83.3047 69.3262 83.3164 69.1914 83.3281 69.0625C83.3281 68.8984 83.3457 68.6641 83.3809 68.3594C83.3926 68.2422 83.4043 68.1367 83.416 68.043C83.4395 67.8555 83.4629 67.7031 83.4863 67.5859C83.498 67.457 83.5039 67.3809 83.5039 67.3574C83.5039 67.3105 83.1758 67.457 82.5195 67.7969C81.4414 68.3359 80.7148 68.7578 80.3398 69.0625C80.2344 69.1445 80.123 69.25 80.0059 69.3789C79.877 69.4961 79.7656 69.6074 79.6719 69.7129C79.5781 69.8066 79.5312 69.8594 79.5312 69.8711C79.5312 69.8828 79.5781 69.8945 79.6719 69.9062C79.7656 69.918 79.8828 69.9238 80.0234 69.9238ZM100.484 63.666C100.543 63.6074 100.584 63.5957 100.607 63.6309C100.643 63.6543 100.654 63.7012 100.643 63.7715C100.631 63.8418 100.602 63.9121 100.555 63.9824C100.508 64.0762 100.18 64.3398 99.5703 64.7734C98.9609 65.207 98.1758 65.6113 97.2148 65.9863C96.2539 66.3496 95.2344 66.4727 94.1562 66.3555C92.5508 66.0742 91.543 65.1543 91.1328 63.5957C90.7227 62.2246 90.7812 60.0156 91.3086 56.9688C91.3203 56.9453 91.3262 56.9277 91.3262 56.916C91.3379 56.834 91.3438 56.7637 91.3438 56.7051C91.3555 56.6465 91.3555 56.6113 91.3438 56.5996C91.3203 56.5879 91.1855 56.5996 90.9395 56.6348C90.6816 56.6582 90.3711 56.6934 90.0078 56.7402C89.6445 56.7871 89.2871 56.834 88.9355 56.8809C87.9863 57.0684 87.0605 57.2969 86.1582 57.5664C85.9824 57.625 85.8535 57.666 85.7715 57.6895C85.6895 57.7129 85.625 57.7246 85.5781 57.7246C85.5312 57.7129 85.4844 57.6953 85.4375 57.6719C85.2852 57.6016 85.1973 57.4902 85.1738 57.3379C85.1387 57.1855 85.1797 57.0449 85.2969 56.916C85.332 56.8809 85.3789 56.8516 85.4375 56.8281C85.4961 56.793 85.5957 56.7637 85.7363 56.7402C85.8652 56.7051 86.0645 56.6699 86.334 56.6348C86.5918 56.5879 86.9375 56.5293 87.3711 56.459C87.957 56.377 88.5664 56.3008 89.1992 56.2305C89.8203 56.1602 90.3535 56.1074 90.7988 56.0723C90.8105 56.0723 90.8223 56.0723 90.834 56.0723C91.0332 56.0605 91.1797 56.0488 91.2734 56.0371C91.3672 56.0254 91.4258 56.0078 91.4492 55.9844C91.4844 55.9609 91.5137 55.9199 91.5371 55.8613C91.5371 55.8145 91.584 55.5566 91.6777 55.0879C91.7598 54.7012 91.8535 54.2383 91.959 53.6992C92.123 52.9375 92.2285 52.4043 92.2754 52.0996C92.334 51.7832 92.3574 51.6191 92.3457 51.6074C92.1348 51.3145 92.1523 51.0332 92.3984 50.7637C92.4688 50.6816 92.5273 50.6289 92.5742 50.6055C92.6328 50.582 92.709 50.5703 92.8027 50.5703C92.8848 50.5703 92.9492 50.582 92.9961 50.6055C93.043 50.6289 93.0957 50.6641 93.1543 50.7109L93.3125 50.8691V51.3613C93.3125 51.5137 93.3008 51.666 93.2773 51.8184C93.2656 51.959 93.2246 52.1875 93.1543 52.5039C93.084 52.8086 92.9727 53.2715 92.8203 53.8926C92.6797 54.4668 92.5625 54.9531 92.4688 55.3516C92.3867 55.7383 92.3457 55.9375 92.3457 55.9492C92.3574 55.9492 92.5098 55.9492 92.8027 55.9492C93.0957 55.9375 93.4531 55.9258 93.875 55.9141C95.7383 55.832 98.1055 55.832 100.977 55.9141C101.34 55.9258 101.65 55.9316 101.908 55.9316C102.166 55.9316 102.377 55.9375 102.541 55.9492C102.705 55.9492 102.834 55.9551 102.928 55.9668C103.033 55.9668 103.109 55.9727 103.156 55.9844C103.215 55.9844 103.25 55.9902 103.262 56.002C103.285 56.0137 103.303 56.0312 103.314 56.0547C103.432 56.1953 103.432 56.3184 103.314 56.4238C103.279 56.4707 103.238 56.5 103.191 56.5117C103.156 56.5234 103.109 56.5234 103.051 56.5117C102.652 56.4648 101.223 56.4004 98.7617 56.3184C97.8477 56.3066 97.0918 56.3008 96.4941 56.3008C95.9082 56.3008 95.3516 56.3066 94.8242 56.3184C93.1719 56.4004 92.3047 56.4648 92.2227 56.5117C92.1992 56.5586 92.1465 56.7871 92.0645 57.1973C91.9824 57.5957 91.8945 58.0586 91.8008 58.5859C91.7188 59.1016 91.6484 59.5703 91.5898 59.9922C91.5312 60.4375 91.4902 60.9004 91.4668 61.3809C91.4551 61.8613 91.4668 62.2598 91.502 62.5762C91.6074 63.5488 91.8887 64.334 92.3457 64.9316C92.8027 65.5176 93.4473 65.8633 94.2793 65.9688C95.5449 66.0508 96.7402 65.8164 97.8652 65.2656C99.002 64.7031 99.875 64.1699 100.484 63.666ZM113.791 63.7891C113.885 63.707 113.979 63.6719 114.072 63.6836C114.166 63.6836 114.219 63.7188 114.23 63.7891C114.242 63.8594 114.172 63.959 114.02 64.0879C112.566 64.9199 111.295 65.3828 110.205 65.4766C109.127 65.5586 108.342 65.459 107.85 65.1777C107.803 65.1543 107.768 65.1484 107.744 65.1602C107.721 65.1602 107.691 65.1895 107.656 65.248C107.645 65.2598 107.633 65.2715 107.621 65.2832C107.094 66.1504 106.449 66.7246 105.688 67.0059C105.477 67.0762 105.289 67.123 105.125 67.1465C104.973 67.1699 104.809 67.1699 104.633 67.1465C103.824 66.9941 103.262 66.4902 102.945 65.6348C102.934 65.6113 102.922 65.582 102.91 65.5469C102.898 65.5 102.881 65.4531 102.857 65.4062C102.846 65.3477 102.834 65.3125 102.822 65.3008C102.822 65.2773 102.799 65.2949 102.752 65.3535C102.717 65.4121 102.682 65.5059 102.646 65.6348C102.471 66.0566 102.307 66.3613 102.154 66.5488C102.014 66.7246 101.855 66.8359 101.68 66.8828C101.094 66.9883 100.719 66.5078 100.555 65.4414C100.461 64.9375 100.449 64.1992 100.52 63.2266C100.543 62.9102 100.566 62.6699 100.59 62.5059C100.625 62.3418 100.672 62.2246 100.73 62.1543C100.789 62.084 100.865 62.0254 100.959 61.9785C101.053 61.9434 101.152 61.9434 101.258 61.9785C101.363 62.002 101.451 62.0605 101.521 62.1543C101.58 62.2129 101.615 62.2949 101.627 62.4004C101.65 62.5059 101.645 62.5996 101.609 62.6816C101.562 62.7754 101.51 62.957 101.451 63.2266C101.393 63.4961 101.346 63.7773 101.311 64.0703C101.287 64.2812 101.275 64.5215 101.275 64.791C101.287 65.0605 101.305 65.3125 101.328 65.5469C101.363 65.7695 101.404 65.9219 101.451 66.0039L101.521 66.127L101.645 65.9512C101.668 65.9043 101.721 65.7754 101.803 65.5645C101.896 65.3418 101.996 65.0957 102.102 64.8262C102.219 64.4863 102.312 64.2285 102.383 64.0527C102.465 63.877 102.541 63.7598 102.611 63.7012C102.682 63.6426 102.758 63.6133 102.84 63.6133C103.156 63.5664 103.35 63.8594 103.42 64.4922C103.502 65.3125 103.73 65.8809 104.105 66.1973C104.387 66.4199 104.703 66.5195 105.055 66.4961C105.184 66.4844 105.342 66.4316 105.529 66.3379C105.729 66.2441 105.91 66.1387 106.074 66.0215C106.203 65.9043 106.367 65.7285 106.566 65.4941C106.766 65.2598 106.912 65.0605 107.006 64.8965L107.129 64.668L106.971 64.4922C106.607 64.1055 106.396 63.6719 106.338 63.1914C106.279 62.6992 106.391 62.2715 106.672 61.9082C107.141 61.3926 107.609 61.2871 108.078 61.5918C108.605 62.0488 108.641 62.916 108.184 64.1934C108.184 64.2051 108.184 64.2168 108.184 64.2285C108.066 64.4746 108.037 64.6152 108.096 64.6504C108.717 64.9668 109.449 65.0605 110.293 64.9316C111.148 64.8027 111.916 64.6035 112.596 64.334C113.275 64.0645 113.674 63.8828 113.791 63.7891ZM107.533 63.6484C107.604 63.4141 107.65 63.2148 107.674 63.0508C107.709 62.8867 107.715 62.7109 107.691 62.5234C107.68 62.3594 107.65 62.2598 107.604 62.2246C107.557 62.1895 107.486 62.1953 107.393 62.2422C107.217 62.3711 107.094 62.5352 107.023 62.7344C106.965 62.9336 106.971 63.1387 107.041 63.3496C107.064 63.4316 107.1 63.5254 107.146 63.6309C107.205 63.7363 107.258 63.8242 107.305 63.8945C107.352 63.9648 107.387 64.0059 107.41 64.0176C107.41 64.0176 107.422 63.9824 107.445 63.9121C107.469 63.8301 107.498 63.7422 107.533 63.6484ZM114.459 66.3027C113.967 66.4434 113.645 66.2676 113.492 65.7754C113.34 65.2715 113.422 64.6621 113.738 63.9473C113.855 63.7129 114.008 63.4727 114.195 63.2266C114.395 62.9688 114.594 62.7578 114.793 62.5938C115.168 62.2773 115.59 62.0488 116.059 61.9082C116.539 61.7559 116.949 61.7266 117.289 61.8203C117.523 61.9023 117.67 62.0312 117.729 62.207C117.799 62.3828 117.764 62.541 117.623 62.6816C117.564 62.7285 117.523 62.7754 117.5 62.8223C117.477 62.8691 117.459 62.9453 117.447 63.0508C117.436 63.1445 117.418 63.3027 117.395 63.5254C117.312 64.2168 117.342 64.873 117.482 65.4941C117.623 66.1152 117.98 66.5723 118.555 66.8652C119.469 67.2285 120.424 67.252 121.42 66.9355C122.428 66.6074 123.365 66.1328 124.232 65.5117C125.111 64.8789 125.803 64.2754 126.307 63.7012C126.33 63.666 126.371 63.6484 126.43 63.6484C126.488 63.6484 126.547 63.6602 126.605 63.6836C126.664 63.707 126.699 63.7422 126.711 63.7891C126.734 63.8242 126.717 63.877 126.658 63.9473C126.025 64.627 125.234 65.3008 124.285 65.9688C123.336 66.6367 122.322 67.123 121.244 67.4277C120.178 67.7324 119.141 67.668 118.133 67.2344C117.09 66.707 116.604 65.6055 116.674 63.9297C116.686 63.7773 116.691 63.6543 116.691 63.5605C116.703 63.4551 116.709 63.4023 116.709 63.4023C116.686 63.4258 116.627 63.5078 116.533 63.6484C116.451 63.7891 116.346 63.959 116.217 64.1582C115.771 64.8848 115.42 65.4062 115.162 65.7227C114.916 66.0273 114.682 66.2207 114.459 66.3027ZM114.441 64.2461C114.312 64.4688 114.219 64.709 114.16 64.9668C114.113 65.2246 114.113 65.4238 114.16 65.5645C114.195 65.6113 114.277 65.5703 114.406 65.4414C114.535 65.3008 114.682 65.1074 114.846 64.8613C115.092 64.4512 115.297 64.1172 115.461 63.8594C115.625 63.6016 115.748 63.4023 115.83 63.2617C115.912 63.1094 115.965 63.0098 115.988 62.9629C116.023 62.9043 116.035 62.875 116.023 62.875C116.012 62.875 115.965 62.8926 115.883 62.9277C115.801 62.9629 115.713 63.0039 115.619 63.0508C115.42 63.1562 115.203 63.3262 114.969 63.5605C114.746 63.7949 114.57 64.0234 114.441 64.2461ZM135.359 63.8066C135.535 63.9707 135.43 64.1875 135.043 64.457C134.539 64.7852 133.859 65.0547 133.004 65.2656C132.16 65.4648 131.34 65.5645 130.543 65.5645C130.332 65.5527 130.174 65.541 130.068 65.5293C129.963 65.5176 129.875 65.5 129.805 65.4766C129.746 65.4531 129.676 65.4238 129.594 65.3887C129.113 65.166 128.797 64.6738 128.645 63.9121L128.592 63.5957L128.328 64.1582C128.246 64.3223 128.146 64.5508 128.029 64.8438C127.912 65.125 127.807 65.4062 127.713 65.6875C127.607 65.9805 127.508 66.25 127.414 66.4961C127.332 66.7305 127.268 66.8945 127.221 66.9883C126.939 67.5391 126.635 67.6855 126.307 67.4277C126.143 67.2754 126.061 66.9238 126.061 66.373C126.061 65.8105 126.148 64.9023 126.324 63.6484C126.359 63.3906 126.383 63.1855 126.395 63.0332C126.418 62.8691 126.43 62.7461 126.43 62.6641C126.441 62.5703 126.441 62.5059 126.43 62.4707C126.43 62.4238 126.424 62.3945 126.412 62.3828C126.33 62.2305 126.312 62.0723 126.359 61.9082C126.418 61.7324 126.523 61.6035 126.676 61.5215C126.816 61.4512 126.951 61.4453 127.08 61.5039C127.221 61.5625 127.314 61.6621 127.361 61.8027C127.373 61.8613 127.367 61.9668 127.344 62.1191C127.332 62.2715 127.291 62.5293 127.221 62.8926C127.092 63.4902 126.986 64.0645 126.904 64.6152C126.822 65.166 126.775 65.5996 126.764 65.916L126.729 66.373L127.115 65.2656C127.713 63.4844 128.223 62.5938 128.645 62.5938C128.832 62.5938 128.967 62.6699 129.049 62.8223C129.143 62.9629 129.219 63.2266 129.277 63.6133C129.336 64.0703 129.412 64.4043 129.506 64.6152C129.6 64.8145 129.746 64.9492 129.945 65.0195C130.461 65.2305 131.34 65.1836 132.582 64.8789C133.59 64.6445 134.328 64.3398 134.797 63.9648C134.961 63.8359 135.078 63.7598 135.148 63.7363C135.23 63.7129 135.301 63.7363 135.359 63.8066ZM137.117 67.1641C135.84 66.9766 135.102 66.3848 134.902 65.3887C134.797 64.8262 134.873 64.1582 135.131 63.3848C135.4 62.6113 135.775 61.9551 136.256 61.416C136.889 60.7715 137.41 60.6719 137.82 61.1172C138.219 61.6562 138.172 62.4648 137.68 63.543C137.574 63.7656 137.475 63.9414 137.381 64.0703C137.299 64.1875 137.176 64.3281 137.012 64.4922C136.625 64.9023 136.268 65.1191 135.939 65.1426C135.857 65.1426 135.787 65.1426 135.729 65.1426C135.682 65.1309 135.635 65.1016 135.588 65.0547L135.447 64.9492V65.1602C135.447 65.8984 135.934 66.4199 136.906 66.7246C137.129 66.7715 137.457 66.8066 137.891 66.8301C138.324 66.8418 138.688 66.8242 138.98 66.7773C139.801 66.6953 140.779 66.3848 141.916 65.8457C143.299 65.2246 144.459 64.5742 145.396 63.8945C145.572 63.7773 145.707 63.7305 145.801 63.7539C145.895 63.7656 145.936 63.8242 145.924 63.9297C145.912 64.0234 145.842 64.123 145.713 64.2285C144.951 64.8027 143.984 65.3711 142.812 65.9336C141.652 66.4844 140.627 66.8594 139.736 67.0586C139.303 67.1406 138.84 67.1934 138.348 67.2168C137.867 67.2285 137.457 67.2109 137.117 67.1641ZM135.553 64.0879C135.541 64.1582 135.541 64.1992 135.553 64.2109C135.564 64.2109 135.6 64.1992 135.658 64.1758C135.705 64.1523 135.752 64.1406 135.799 64.1406C135.846 64.1289 135.893 64.123 135.939 64.123C136.092 64.0645 136.279 63.9004 136.502 63.6309C136.736 63.3613 136.918 63.0801 137.047 62.7871C137.141 62.5059 137.193 62.2598 137.205 62.0488C137.229 61.8262 137.199 61.7148 137.117 61.7148C137.082 61.7148 137 61.7793 136.871 61.9082C136.742 62.0371 136.607 62.1895 136.467 62.3652C136.326 62.5293 136.209 62.6816 136.115 62.8223C135.998 63.0215 135.887 63.2441 135.781 63.4902C135.676 63.7246 135.6 63.9238 135.553 64.0879ZM164.609 63.7363C164.691 63.6777 164.762 63.6602 164.82 63.6836C164.879 63.6953 164.914 63.7363 164.926 63.8066C164.949 63.877 164.932 63.9473 164.873 64.0176C164.85 64.0645 164.609 64.3105 164.152 64.7559C163.707 65.2012 163.127 65.6992 162.412 66.25C161.697 66.8008 160.93 67.2637 160.109 67.6387C159.289 68.002 158.492 68.1309 157.719 68.0254C157.121 67.8965 156.682 67.5742 156.4 67.0586C156.131 66.543 155.967 65.8984 155.908 65.125L155.891 64.7207L155.662 65.1777C155.334 65.8691 154.988 66.4668 154.625 66.9707C154.273 67.4746 153.969 67.7969 153.711 67.9375C153.512 68.043 153.318 68.0664 153.131 68.0078C152.85 67.9023 152.627 67.5742 152.463 67.0234C152.416 66.7773 152.387 66.4258 152.375 65.9688C152.352 65.5117 152.357 65.1191 152.393 64.791C152.498 63.9004 152.715 63.1387 153.043 62.5059C153.301 61.9316 153.635 61.5566 154.045 61.3809C154.15 61.334 154.238 61.3047 154.309 61.293C154.391 61.2695 154.496 61.2578 154.625 61.2578C154.871 61.2578 155.059 61.293 155.188 61.3633C155.328 61.4219 155.486 61.5391 155.662 61.7148L155.979 62.0488L156.014 61.75C156.225 59.4766 156.465 57.6074 156.734 56.1426C156.793 55.873 156.828 55.6797 156.84 55.5625C156.863 55.4336 156.869 55.3457 156.857 55.2988C156.822 55.1465 156.857 55.0117 156.963 54.8945C157.068 54.7656 157.203 54.7012 157.367 54.7012C157.52 54.7012 157.66 54.7598 157.789 54.877C157.93 54.9941 157.977 55.1348 157.93 55.2988C157.566 56.2715 157.25 57.7012 156.98 59.5879C156.723 61.4629 156.6 63.1797 156.611 64.7383C156.611 65.0898 156.641 65.4766 156.699 65.8984C156.758 66.3086 156.875 66.6719 157.051 66.9883C157.238 67.293 157.514 67.4746 157.877 67.5332C158.604 67.6152 159.395 67.4453 160.25 67.0234C161.105 66.6016 161.92 66.0801 162.693 65.459C163.479 64.8379 164.117 64.2637 164.609 63.7363ZM155.539 63.877C155.598 63.6777 155.586 63.4023 155.504 63.0508C155.398 62.6758 155.234 62.377 155.012 62.1543C154.941 62.084 154.883 62.043 154.836 62.0312C154.789 62.0078 154.719 61.9961 154.625 61.9961C154.484 61.9961 154.361 62.0254 154.256 62.084C153.717 62.3887 153.318 63.1445 153.061 64.3516C152.99 64.668 152.949 65.084 152.938 65.5996C152.926 66.1035 152.943 66.5078 152.99 66.8125C153.096 67.4805 153.289 67.6973 153.57 67.4629C153.652 67.416 153.746 67.3281 153.852 67.1992C153.969 67.0586 154.121 66.8535 154.309 66.584C154.848 65.7051 155.258 64.8027 155.539 63.877ZM166.684 67.1641C165.406 66.9766 164.668 66.3848 164.469 65.3887C164.363 64.8262 164.439 64.1582 164.697 63.3848C164.967 62.6113 165.342 61.9551 165.822 61.416C166.455 60.7715 166.977 60.6719 167.387 61.1172C167.785 61.6562 167.738 62.4648 167.246 63.543C167.141 63.7656 167.041 63.9414 166.947 64.0703C166.865 64.1875 166.742 64.3281 166.578 64.4922C166.191 64.9023 165.834 65.1191 165.506 65.1426C165.424 65.1426 165.354 65.1426 165.295 65.1426C165.248 65.1309 165.201 65.1016 165.154 65.0547L165.014 64.9492V65.1602C165.014 65.8984 165.5 66.4199 166.473 66.7246C166.695 66.7715 167.023 66.8066 167.457 66.8301C167.891 66.8418 168.254 66.8242 168.547 66.7773C169.367 66.6953 170.346 66.3848 171.482 65.8457C172.865 65.2246 174.025 64.5742 174.963 63.8945C175.139 63.7773 175.273 63.7305 175.367 63.7539C175.461 63.7656 175.502 63.8242 175.49 63.9297C175.479 64.0234 175.408 64.123 175.279 64.2285C174.518 64.8027 173.551 65.3711 172.379 65.9336C171.219 66.4844 170.193 66.8594 169.303 67.0586C168.869 67.1406 168.406 67.1934 167.914 67.2168C167.434 67.2285 167.023 67.2109 166.684 67.1641ZM165.119 64.0879C165.107 64.1582 165.107 64.1992 165.119 64.2109C165.131 64.2109 165.166 64.1992 165.225 64.1758C165.271 64.1523 165.318 64.1406 165.365 64.1406C165.412 64.1289 165.459 64.123 165.506 64.123C165.658 64.0645 165.846 63.9004 166.068 63.6309C166.303 63.3613 166.484 63.0801 166.613 62.7871C166.707 62.5059 166.76 62.2598 166.771 62.0488C166.795 61.8262 166.766 61.7148 166.684 61.7148C166.648 61.7148 166.566 61.7793 166.438 61.9082C166.309 62.0371 166.174 62.1895 166.033 62.3652C165.893 62.5293 165.775 62.6816 165.682 62.8223C165.564 63.0215 165.453 63.2441 165.348 63.4902C165.242 63.7246 165.166 63.9238 165.119 64.0879ZM181.625 65.9336C180.652 65.9102 179.908 65.6113 179.393 65.0371C179.311 64.9434 179.24 64.873 179.182 64.8262C179.123 64.7676 179.094 64.7383 179.094 64.7383C179.082 64.75 179.047 64.7969 178.988 64.8789C178.93 64.9609 178.859 65.0664 178.777 65.1953C178.238 65.9688 177.676 66.5137 177.09 66.8301C176.949 66.9004 176.791 66.9473 176.615 66.9707C176.451 66.9941 176.316 66.9941 176.211 66.9707C175.543 66.7598 175.174 65.7812 175.104 64.0352C175.021 62.8867 175.209 62.3125 175.666 62.3125C175.889 62.3125 176.035 62.4062 176.105 62.5938C176.129 62.6523 176.141 62.7109 176.141 62.7695C176.141 62.8164 176.117 62.8867 176.07 62.9805C176.012 63.1562 175.977 63.4727 175.965 63.9297C175.965 64.375 175.982 64.7676 176.018 65.1074C176.053 65.3652 176.1 65.5996 176.158 65.8105C176.229 66.0098 176.287 66.1445 176.334 66.2148C176.568 66.3672 176.914 66.2266 177.371 65.793C177.84 65.3594 178.25 64.7969 178.602 64.1055C178.613 64.0938 178.625 64.0762 178.637 64.0527C178.695 63.959 178.73 63.8828 178.742 63.8242C178.754 63.7656 178.742 63.6836 178.707 63.5781C178.672 63.3789 178.66 63.1094 178.672 62.7695C178.695 62.4297 178.736 62.166 178.795 61.9785C178.807 61.9082 178.836 61.832 178.883 61.75C178.93 61.668 178.971 61.6035 179.006 61.5566C179.076 61.4863 179.129 61.4395 179.164 61.416C179.211 61.3926 179.275 61.3809 179.357 61.3809C179.486 61.3809 179.58 61.4043 179.639 61.4512C179.697 61.4863 179.756 61.5566 179.814 61.6621C179.861 61.709 179.885 61.7734 179.885 61.8555C179.896 61.9258 179.902 62.0488 179.902 62.2246C179.902 62.6816 179.779 63.209 179.533 63.8066L179.393 64.1055L179.533 64.3516C179.861 64.9844 180.535 65.3477 181.555 65.4414C182.223 65.4766 182.961 65.3477 183.77 65.0547C184.578 64.75 185.393 64.3984 186.213 64C186.4 63.918 186.588 63.8301 186.775 63.7363C186.857 63.7012 186.922 63.7012 186.969 63.7363C187.027 63.7715 187.057 63.8184 187.057 63.877C187.068 63.9355 187.039 63.9941 186.969 64.0527C186.453 64.3926 185.645 64.7852 184.543 65.2305C183.441 65.6641 182.469 65.8984 181.625 65.9336ZM188.867 67.1641C187.59 66.9766 186.852 66.3848 186.652 65.3887C186.547 64.8262 186.623 64.1582 186.881 63.3848C187.15 62.6113 187.525 61.9551 188.006 61.416C188.639 60.7715 189.16 60.6719 189.57 61.1172C189.969 61.6562 189.922 62.4648 189.43 63.543C189.324 63.7656 189.225 63.9414 189.131 64.0703C189.049 64.1875 188.926 64.3281 188.762 64.4922C188.375 64.9023 188.018 65.1191 187.689 65.1426C187.607 65.1426 187.537 65.1426 187.479 65.1426C187.432 65.1309 187.385 65.1016 187.338 65.0547L187.197 64.9492V65.1602C187.197 65.8984 187.684 66.4199 188.656 66.7246C188.879 66.7715 189.207 66.8066 189.641 66.8301C190.074 66.8418 190.438 66.8242 190.73 66.7773C191.551 66.6953 192.529 66.3848 193.666 65.8457C195.049 65.2246 196.209 64.5742 197.146 63.8945C197.322 63.7773 197.457 63.7305 197.551 63.7539C197.645 63.7656 197.686 63.8242 197.674 63.9297C197.662 64.0234 197.592 64.123 197.463 64.2285C196.701 64.8027 195.734 65.3711 194.562 65.9336C193.402 66.4844 192.377 66.8594 191.486 67.0586C191.053 67.1406 190.59 67.1934 190.098 67.2168C189.617 67.2285 189.207 67.2109 188.867 67.1641ZM187.303 64.0879C187.291 64.1582 187.291 64.1992 187.303 64.2109C187.314 64.2109 187.35 64.1992 187.408 64.1758C187.455 64.1523 187.502 64.1406 187.549 64.1406C187.596 64.1289 187.643 64.123 187.689 64.123C187.842 64.0645 188.029 63.9004 188.252 63.6309C188.486 63.3613 188.668 63.0801 188.797 62.7871C188.891 62.5059 188.943 62.2598 188.955 62.0488C188.979 61.8262 188.949 61.7148 188.867 61.7148C188.832 61.7148 188.75 61.7793 188.621 61.9082C188.492 62.0371 188.357 62.1895 188.217 62.3652C188.076 62.5293 187.959 62.6816 187.865 62.8223C187.748 63.0215 187.637 63.2441 187.531 63.4902C187.426 63.7246 187.35 63.9238 187.303 64.0879ZM205.479 63.8066C205.549 63.6895 205.625 63.6309 205.707 63.6309C205.801 63.6309 205.865 63.666 205.9 63.7363C205.947 63.8066 205.936 63.9004 205.865 64.0176C205.607 64.5098 205.18 65.1074 204.582 65.8105C203.996 66.502 203.305 67.0938 202.508 67.5859C201.711 68.0664 200.873 68.2422 199.994 68.1133C199.15 67.9258 198.523 67.4688 198.113 66.7422C197.703 66.0039 197.445 65.1484 197.34 64.1758C197.234 63.2031 197.217 62.2656 197.287 61.3633C197.451 59.1719 197.902 57.2852 198.641 55.7031C199.379 54.1094 200.275 53.0078 201.33 52.3984C201.705 52.2109 202.121 52.1172 202.578 52.1172C203.246 52.1523 203.721 52.4746 204.002 53.084C204.447 54.0801 204.23 55.5156 203.352 57.3906C202.473 59.2539 200.809 61.252 198.359 63.3848L198.043 63.6484C198.113 64.6797 198.318 65.5586 198.658 66.2852C198.998 67 199.514 67.4336 200.205 67.5859C201.154 67.6797 202.139 67.3164 203.158 66.4961C204.189 65.6641 204.963 64.7676 205.479 63.8066ZM201.084 53.3301C200.158 54.209 199.414 55.5508 198.852 57.3555C198.301 59.1602 198.025 61.0996 198.025 63.1738C198.049 63.1738 198.102 63.1387 198.184 63.0684C198.277 62.9863 198.389 62.8867 198.518 62.7695C198.975 62.3828 199.654 61.6797 200.557 60.6602C201.471 59.6289 202.256 58.4688 202.912 57.1797C203.58 55.8906 203.773 54.6543 203.492 53.4707C203.422 53.2012 203.305 53.0078 203.141 52.8906C202.555 52.5273 201.869 52.6738 201.084 53.3301ZM215.639 63.7891C215.639 63.7891 215.639 63.8008 215.639 63.8242C215.65 63.8477 215.65 63.877 215.639 63.9121C215.639 63.9473 215.621 63.9883 215.586 64.0352C215.551 64.0703 215.498 64.1113 215.428 64.1582C214.619 64.627 213.605 65.0488 212.387 65.4238C211.168 65.7988 210.055 65.8867 209.047 65.6875C209 65.6758 208.959 65.6875 208.924 65.7227C208.889 65.7461 208.848 65.8105 208.801 65.916C208.637 66.2559 208.414 66.5781 208.133 66.8828C207.863 67.1758 207.594 67.3926 207.324 67.5332C207.148 67.6035 206.967 67.6504 206.779 67.6738C206.592 67.6973 206.428 67.6914 206.287 67.6562C205.795 67.4805 205.467 67.0527 205.303 66.373C205.232 66.0918 205.209 65.7285 205.232 65.2832C205.244 64.8379 205.291 64.4512 205.373 64.123C205.549 63.5488 205.795 63.0332 206.111 62.5762C206.428 62.1191 206.768 61.8027 207.131 61.627C207.271 61.5684 207.424 61.5332 207.588 61.5215C207.752 61.5098 207.898 61.5215 208.027 61.5566C208.121 61.5918 208.227 61.668 208.344 61.7852C208.461 61.9023 208.549 62.0195 208.607 62.1367C208.725 62.3711 208.789 62.6348 208.801 62.9277C208.812 63.2207 208.777 63.4199 208.695 63.5254C208.648 63.584 208.625 63.6191 208.625 63.6309C208.625 63.6426 208.648 63.6484 208.695 63.6484C208.766 63.6484 208.842 63.6895 208.924 63.7715C209.018 63.8418 209.082 63.9238 209.117 64.0176C209.164 64.1348 209.188 64.2871 209.188 64.4746C209.188 64.6621 209.164 64.8496 209.117 65.0371C209.094 65.1309 209.076 65.2129 209.064 65.2832C209.053 65.3418 209.053 65.3711 209.064 65.3711C210.037 65.5586 211.168 65.4473 212.457 65.0371C213.758 64.6152 214.719 64.1875 215.34 63.7539C215.375 63.7305 215.41 63.7129 215.445 63.7012C215.48 63.6895 215.51 63.6895 215.533 63.7012C215.568 63.7129 215.592 63.7305 215.604 63.7539C215.627 63.7656 215.639 63.7773 215.639 63.7891ZM208.203 65.6699L208.309 65.4238L208.15 65.3184C207.928 65.1309 207.799 64.9082 207.764 64.6504C207.729 64.3926 207.799 64.1523 207.975 63.9297L208.133 63.7539L207.975 63.6133C207.963 63.6016 207.951 63.5898 207.939 63.5781C207.893 63.543 207.857 63.5078 207.834 63.4727C207.811 63.4375 207.793 63.3906 207.781 63.332C207.781 63.2734 207.781 63.1855 207.781 63.0684C207.781 62.916 207.764 62.7754 207.729 62.6465C207.693 62.5059 207.658 62.4355 207.623 62.4355C207.564 62.4355 207.459 62.4883 207.307 62.5938C207.154 62.6992 207.014 62.8164 206.885 62.9453C206.498 63.3555 206.205 63.8594 206.006 64.457C205.9 64.7617 205.836 65.0957 205.812 65.459C205.789 65.8223 205.807 66.127 205.865 66.373C206.041 66.9121 206.293 67.1816 206.621 67.1816C206.656 67.1816 206.709 67.1699 206.779 67.1465C206.85 67.1113 206.92 67.0762 206.99 67.041C207.225 66.9355 207.453 66.7598 207.676 66.5137C207.898 66.2559 208.074 65.9746 208.203 65.6699ZM208.502 64.8789C208.514 64.8086 208.525 64.7324 208.537 64.6504C208.549 64.5684 208.555 64.5039 208.555 64.457C208.555 64.1875 208.467 64.1523 208.291 64.3516C208.244 64.3984 208.215 64.4453 208.203 64.4922C208.191 64.5273 208.186 64.5742 208.186 64.6328C208.197 64.7031 208.215 64.7734 208.238 64.8438C208.262 64.9141 208.291 64.9727 208.326 65.0195C208.361 65.0664 208.396 65.0898 208.432 65.0898C208.443 65.0898 208.455 65.0723 208.467 65.0371C208.479 64.9902 208.49 64.9375 208.502 64.8789ZM224.498 63.7188C224.627 63.707 224.727 63.7129 224.797 63.7363C224.867 63.7598 224.902 63.8242 224.902 63.9297C224.902 64.0938 224.715 64.1875 224.34 64.2109C224.188 64.2227 223.912 64.2754 223.514 64.3691C223.115 64.4512 222.682 64.5508 222.213 64.668C221.756 64.7734 221.363 64.873 221.035 64.9668C221 64.9785 220.965 64.9844 220.93 64.9844C220.742 65.043 220.602 65.0898 220.508 65.125C220.426 65.1484 220.367 65.1777 220.332 65.2129C220.297 65.2363 220.273 65.2715 220.262 65.3184C220.062 65.752 219.734 66.2383 219.277 66.7773C218.82 67.3164 218.393 67.7441 217.994 68.0605C217.385 68.4941 216.898 68.6348 216.535 68.4824C216.055 68.2012 216.049 67.6973 216.518 66.9707C216.939 66.291 217.807 65.6934 219.119 65.1777L219.664 64.9316L219.77 64.6504C219.828 64.4277 219.857 64.1758 219.857 63.8945C219.857 63.6133 219.828 63.3906 219.77 63.2266C219.664 62.9453 219.488 62.7461 219.242 62.6289C218.785 62.4414 218.328 62.5293 217.871 62.8926C217.414 63.2441 217.01 63.7188 216.658 64.3164C216.307 64.9141 216.072 65.4766 215.955 66.0039C215.955 66.0625 215.955 66.1211 215.955 66.1797C215.943 66.4023 215.938 66.5488 215.938 66.6191C215.926 66.6543 215.92 66.6777 215.92 66.6895C215.885 67.5801 215.85 68.2598 215.814 68.7285C215.803 68.9043 215.785 69.1211 215.762 69.3789C215.75 69.5781 215.732 69.8066 215.709 70.0645C215.674 70.5918 215.621 71.3359 215.551 72.2969C215.48 73.2578 215.404 74.2188 215.322 75.1797C215.287 75.6719 215.258 76.0938 215.234 76.4453C215.211 76.7734 215.188 77.0547 215.164 77.2891C215.141 77.5234 215.123 77.7168 215.111 77.8691C215.1 78.0215 215.088 78.1445 215.076 78.2383C215.064 78.332 215.059 78.4023 215.059 78.4492C215.047 78.5078 215.035 78.543 215.023 78.5547C215.012 78.5781 215 78.5957 214.988 78.6074C214.906 78.666 214.824 78.6895 214.742 78.6777C214.648 78.6777 214.572 78.6426 214.514 78.5723C214.502 78.5605 214.496 78.5547 214.496 78.5547C214.473 78.5312 214.455 78.5078 214.443 78.4844C214.432 78.4727 214.426 78.4434 214.426 78.3965C214.426 78.3496 214.432 78.2793 214.443 78.1855C214.443 78.1035 214.449 77.9805 214.461 77.8164C214.473 77.6641 214.49 77.4648 214.514 77.2188C214.525 77.0312 214.543 76.8086 214.566 76.5508C215.035 71.2773 215.299 67.1582 215.357 64.1934C215.357 64.1582 215.357 64.1113 215.357 64.0527C215.357 63.9941 215.357 63.9355 215.357 63.877C215.357 63.8066 215.357 63.748 215.357 63.7012C215.357 63.6543 215.357 63.6309 215.357 63.6309C215.369 63.1387 215.369 62.6641 215.357 62.207L215.375 61.1348L215.48 61.0117C215.539 60.9531 215.586 60.918 215.621 60.9062C215.668 60.8828 215.715 60.8711 215.762 60.8711C215.949 60.8711 216.09 60.9355 216.184 61.0645C216.277 61.1816 216.295 61.3164 216.236 61.4688C216.213 61.5156 216.189 61.6211 216.166 61.7852C216.154 61.9375 216.137 62.1074 216.113 62.2949C216.113 62.2949 216.113 62.3008 216.113 62.3125C216.113 62.3242 216.113 62.3301 216.113 62.3301C216.113 62.3301 216.113 62.3359 216.113 62.3477C216.113 62.3477 216.113 62.3535 216.113 62.3652C216.102 62.5527 216.096 62.7109 216.096 62.8398C216.096 62.9219 216.09 63.0098 216.078 63.1035C216.066 63.4668 216.049 63.9062 216.025 64.4219C216.436 63.6953 216.893 63.0918 217.396 62.6113C217.502 62.5293 217.613 62.4473 217.73 62.3652C217.848 62.2715 217.953 62.2012 218.047 62.1543C218.398 62.002 218.738 61.9316 219.066 61.9434C219.406 61.9551 219.641 62.002 219.77 62.084C220.484 62.4824 220.76 63.1797 220.596 64.1758C220.572 64.3047 220.555 64.416 220.543 64.5098C220.531 64.5918 220.525 64.6328 220.525 64.6328C220.537 64.6445 220.607 64.6387 220.736 64.6152C220.865 64.5801 221.018 64.5332 221.193 64.4746C221.475 64.3926 221.85 64.2988 222.318 64.1934C222.799 64.0762 223.25 63.9766 223.672 63.8945C224.094 63.8008 224.369 63.7422 224.498 63.7188ZM218.891 66.3906C219.055 66.1445 219.189 65.9277 219.295 65.7402C219.412 65.5527 219.453 65.459 219.418 65.459C219.371 65.459 219.225 65.5117 218.979 65.6172C218.744 65.7109 218.516 65.8105 218.293 65.916C217.531 66.3262 217.027 66.8242 216.781 67.4102C216.547 68.0312 216.752 68.166 217.396 67.8145C217.596 67.6973 217.842 67.498 218.135 67.2168C218.439 66.9355 218.691 66.6602 218.891 66.3906ZM226.625 67.1641C225.348 66.9766 224.609 66.3848 224.41 65.3887C224.305 64.8262 224.381 64.1582 224.639 63.3848C224.908 62.6113 225.283 61.9551 225.764 61.416C226.396 60.7715 226.918 60.6719 227.328 61.1172C227.727 61.6562 227.68 62.4648 227.188 63.543C227.082 63.7656 226.982 63.9414 226.889 64.0703C226.807 64.1875 226.684 64.3281 226.52 64.4922C226.133 64.9023 225.775 65.1191 225.447 65.1426C225.365 65.1426 225.295 65.1426 225.236 65.1426C225.189 65.1309 225.143 65.1016 225.096 65.0547L224.955 64.9492V65.1602C224.955 65.8984 225.441 66.4199 226.414 66.7246C226.637 66.7715 226.965 66.8066 227.398 66.8301C227.832 66.8418 228.195 66.8242 228.488 66.7773C229.309 66.6953 230.287 66.3848 231.424 65.8457C232.807 65.2246 233.967 64.5742 234.904 63.8945C235.08 63.7773 235.215 63.7305 235.309 63.7539C235.402 63.7656 235.443 63.8242 235.432 63.9297C235.42 64.0234 235.35 64.123 235.221 64.2285C234.459 64.8027 233.492 65.3711 232.32 65.9336C231.16 66.4844 230.135 66.8594 229.244 67.0586C228.811 67.1406 228.348 67.1934 227.855 67.2168C227.375 67.2285 226.965 67.2109 226.625 67.1641ZM225.061 64.0879C225.049 64.1582 225.049 64.1992 225.061 64.2109C225.072 64.2109 225.107 64.1992 225.166 64.1758C225.213 64.1523 225.26 64.1406 225.307 64.1406C225.354 64.1289 225.4 64.123 225.447 64.123C225.6 64.0645 225.787 63.9004 226.01 63.6309C226.244 63.3613 226.426 63.0801 226.555 62.7871C226.648 62.5059 226.701 62.2598 226.713 62.0488C226.736 61.8262 226.707 61.7148 226.625 61.7148C226.59 61.7148 226.508 61.7793 226.379 61.9082C226.25 62.0371 226.115 62.1895 225.975 62.3652C225.834 62.5293 225.717 62.6816 225.623 62.8223C225.506 63.0215 225.395 63.2441 225.289 63.4902C225.184 63.7246 225.107 63.9238 225.061 64.0879ZM244.098 63.8066C244.273 63.9707 244.168 64.1875 243.781 64.457C243.277 64.7852 242.598 65.0547 241.742 65.2656C240.898 65.4648 240.078 65.5645 239.281 65.5645C239.07 65.5527 238.912 65.541 238.807 65.5293C238.701 65.5176 238.613 65.5 238.543 65.4766C238.484 65.4531 238.414 65.4238 238.332 65.3887C237.852 65.166 237.535 64.6738 237.383 63.9121L237.33 63.5957L237.066 64.1582C236.984 64.3223 236.885 64.5508 236.768 64.8438C236.65 65.125 236.545 65.4062 236.451 65.6875C236.346 65.9805 236.246 66.25 236.152 66.4961C236.07 66.7305 236.006 66.8945 235.959 66.9883C235.678 67.5391 235.373 67.6855 235.045 67.4277C234.881 67.2754 234.799 66.9238 234.799 66.373C234.799 65.8105 234.887 64.9023 235.062 63.6484C235.098 63.3906 235.121 63.1855 235.133 63.0332C235.156 62.8691 235.168 62.7461 235.168 62.6641C235.18 62.5703 235.18 62.5059 235.168 62.4707C235.168 62.4238 235.162 62.3945 235.15 62.3828C235.068 62.2305 235.051 62.0723 235.098 61.9082C235.156 61.7324 235.262 61.6035 235.414 61.5215C235.555 61.4512 235.689 61.4453 235.818 61.5039C235.959 61.5625 236.053 61.6621 236.1 61.8027C236.111 61.8613 236.105 61.9668 236.082 62.1191C236.07 62.2715 236.029 62.5293 235.959 62.8926C235.83 63.4902 235.725 64.0645 235.643 64.6152C235.561 65.166 235.514 65.5996 235.502 65.916L235.467 66.373L235.854 65.2656C236.451 63.4844 236.961 62.5938 237.383 62.5938C237.57 62.5938 237.705 62.6699 237.787 62.8223C237.881 62.9629 237.957 63.2266 238.016 63.6133C238.074 64.0703 238.15 64.4043 238.244 64.6152C238.338 64.8145 238.484 64.9492 238.684 65.0195C239.199 65.2305 240.078 65.1836 241.32 64.8789C242.328 64.6445 243.066 64.3398 243.535 63.9648C243.699 63.8359 243.816 63.7598 243.887 63.7363C243.969 63.7129 244.039 63.7363 244.098 63.8066Z" fill="#3F4247"/>
<path d="M25.968 31.16C25.712 31.256 25.344 31.48 24.864 31.832C24.416 32.152 24.032 32.792 23.712 33.752L17.04 53.624C16.24 55.992 15.472 57.992 14.736 59.624C14 61.256 13.248 62.584 12.48 63.608C11.744 64.664 10.96 65.416 10.128 65.864C9.328 66.344 8.448 66.584 7.488 66.584C6.048 66.584 4.992 66.232 4.32 65.528C3.68 64.856 3.36 64.12 3.36 63.32C3.36 62.904 3.44 62.488 3.6 62.072C3.76 61.656 3.968 61.288 4.224 60.968C4.48 60.648 4.768 60.392 5.088 60.2C5.408 60.008 5.728 59.912 6.048 59.912C5.888 61.032 6 61.928 6.384 62.6C6.8 63.304 7.44 63.656 8.304 63.656C9.52 63.656 10.768 62.856 12.048 61.256C13.328 59.688 14.56 57.128 15.744 53.576L15.936 53H10.8C10.64 52.52 10.464 52.024 10.272 51.512C10.08 51 9.888 50.472 9.696 49.928C9.376 49 8.96 47.88 8.448 46.568C7.968 45.224 7.456 43.8 6.912 42.296C6.368 40.792 5.808 39.272 5.232 37.736C4.688 36.168 4.176 34.712 3.696 33.368C3.44 32.696 3.072 32.184 2.592 31.832C2.144 31.48 1.776 31.256 1.488 31.16H10.704C10.448 31.256 10.208 31.528 9.984 31.976C9.792 32.424 9.824 33.016 10.08 33.752L16.464 51.368L22.368 33.752C22.688 32.856 22.736 32.232 22.512 31.88C22.32 31.496 22.096 31.256 21.84 31.16H25.968ZM62.8654 53C63.1214 52.904 63.4254 52.696 63.7774 52.376C64.1614 52.024 64.3534 51.352 64.3534 50.36V38.408C64.3534 36.392 63.9854 34.792 63.2494 33.608C62.5134 32.392 61.5694 31.784 60.4174 31.784C59.9054 31.784 59.4094 31.864 58.9294 32.024C58.4494 32.184 58.0174 32.392 57.6334 32.648C57.2814 32.872 56.9774 33.112 56.7214 33.368C56.4654 33.592 56.2734 33.8 56.1454 33.992V50.312C56.1454 50.824 56.1934 51.24 56.2894 51.56C56.4174 51.88 56.5454 52.136 56.6734 52.328C56.8334 52.52 56.9934 52.664 57.1534 52.76C57.3454 52.856 57.5054 52.936 57.6334 53H48.7534C49.0094 52.904 49.3134 52.68 49.6654 52.328C50.0494 51.976 50.2414 51.304 50.2414 50.312V46.52C50.2414 45.432 50.3694 44.408 50.6254 43.448C50.9134 42.488 51.2334 41.608 51.5854 40.808C51.9694 39.976 52.3694 39.208 52.7854 38.504C53.2014 37.8 53.5534 37.16 53.8414 36.584C53.2974 37.32 52.7534 38.12 52.2094 38.984C51.6654 39.848 51.1214 40.728 50.5774 41.624C49.6814 43.128 48.7534 44.616 47.7934 46.088C46.8334 47.56 45.8094 48.872 44.7214 50.024C43.6334 51.176 42.4494 52.12 41.1694 52.856C39.8894 53.56 38.4814 53.912 36.9454 53.912C35.5694 53.912 34.2254 53.672 32.9134 53.192C31.6334 52.712 30.4814 51.976 29.4574 50.984C28.4654 49.992 27.6494 48.76 27.0094 47.288C26.4014 45.784 26.0974 44.024 26.0974 42.008C26.0974 39.96 26.4334 38.2 27.1054 36.728C27.7774 35.224 28.6414 33.992 29.6974 33.032C30.7854 32.072 32.0014 31.368 33.3454 30.92C34.7214 30.44 36.0974 30.2 37.4734 30.2C38.7854 30.2 39.9694 30.376 41.0254 30.728C42.1134 31.08 43.0254 31.544 43.7614 32.12C44.5294 32.696 45.1214 33.368 45.5374 34.136C45.9534 34.872 46.1614 35.656 46.1614 36.488C46.1614 37.352 45.8574 38.088 45.2494 38.696C44.6414 39.304 43.9054 39.608 43.0414 39.608C42.1774 39.608 41.4414 39.304 40.8334 38.696C40.2254 38.088 39.9214 37.352 39.9214 36.488C39.9214 34.824 39.7614 33.56 39.4414 32.696C39.1214 31.832 38.4494 31.4 37.4254 31.4C36.7854 31.4 36.1614 31.624 35.5534 32.072C34.9454 32.52 34.4014 33.192 33.9214 34.088C33.4414 34.984 33.0414 36.104 32.7214 37.448C32.4334 38.76 32.2894 40.28 32.2894 42.008C32.2894 43.704 32.4814 45.208 32.8654 46.52C33.2494 47.8 33.7294 48.872 34.3054 49.736C34.8814 50.6 35.5214 51.256 36.2254 51.704C36.9294 52.12 37.5854 52.328 38.1934 52.328C38.9934 52.328 39.7294 52.184 40.4014 51.896C41.0734 51.576 41.6974 51.192 42.2734 50.744C43.6814 49.624 44.9614 48.2 46.1134 46.472C47.2974 44.712 48.4494 42.904 49.5694 41.048C49.6974 40.856 49.8094 40.68 49.9054 40.52C50.0014 40.328 50.1134 40.136 50.2414 39.944V20.648C50.2414 20.168 50.1774 19.768 50.0494 19.448C49.9534 19.096 49.8254 18.824 49.6654 18.632C49.5054 18.44 49.3454 18.296 49.1854 18.2C49.0254 18.104 48.8814 18.04 48.7534 18.008H56.1454V32.264C57.2334 31.4 58.2734 30.84 59.2654 30.584C60.2894 30.328 61.2014 30.2 62.0014 30.2C62.8654 30.2 63.7774 30.36 64.7374 30.68C65.7294 30.968 66.6254 31.464 67.4254 32.168C68.2574 32.84 68.9294 33.736 69.4414 34.856C69.9854 35.944 70.2574 37.272 70.2574 38.84V50.312C70.2574 50.824 70.3054 51.24 70.4014 51.56C70.5294 51.88 70.6734 52.136 70.8334 52.328C70.9934 52.52 71.1534 52.664 71.3134 52.76C71.5054 52.856 71.6654 52.936 71.7934 53H62.8654ZM85.3706 30.152C86.9706 30.152 88.4426 30.472 89.7866 31.112C91.1306 31.72 92.2826 32.568 93.2426 33.656C94.2026 34.712 94.9546 35.96 95.4986 37.4C96.0426 38.84 96.3146 40.376 96.3146 42.008C96.3146 43.64 96.0426 45.176 95.4986 46.616C94.9546 48.056 94.2026 49.32 93.2426 50.408C92.2826 51.464 91.1306 52.312 89.7866 52.952C88.4426 53.56 86.9706 53.864 85.3706 53.864C83.7706 53.864 82.2986 53.56 80.9546 52.952C79.6106 52.312 78.4426 51.464 77.4506 50.408C76.4906 49.32 75.7386 48.056 75.1946 46.616C74.6506 45.176 74.3786 43.64 74.3786 42.008C74.3786 40.376 74.6506 38.84 75.1946 37.4C75.7386 35.96 76.4906 34.712 77.4506 33.656C78.4426 32.568 79.6106 31.72 80.9546 31.112C82.2986 30.472 83.7706 30.152 85.3706 30.152ZM85.3706 52.664C86.2666 52.664 87.0186 52.328 87.6266 51.656C88.2346 50.952 88.7146 50.088 89.0666 49.064C89.4506 48.008 89.7226 46.856 89.8826 45.608C90.0426 44.36 90.1226 43.16 90.1226 42.008C90.1226 40.856 90.0426 39.656 89.8826 38.408C89.7226 37.16 89.4506 36.024 89.0666 35C88.7146 33.944 88.2346 33.08 87.6266 32.408C87.0186 31.736 86.2666 31.4 85.3706 31.4C84.4746 31.4 83.7226 31.736 83.1146 32.408C82.5066 33.08 82.0106 33.944 81.6266 35C81.2426 36.024 80.9706 37.16 80.8106 38.408C80.6506 39.656 80.5706 40.856 80.5706 42.008C80.5706 43.16 80.6506 44.36 80.8106 45.608C80.9706 46.856 81.2426 48.008 81.6266 49.064C82.0106 50.088 82.5066 50.952 83.1146 51.656C83.7226 52.328 84.4746 52.664 85.3706 52.664ZM110.536 17.96C111.848 17.96 113.032 18.136 114.088 18.488C115.176 18.84 116.088 19.304 116.824 19.88C117.592 20.456 118.184 21.128 118.6 21.896C119.016 22.632 119.224 23.416 119.224 24.248C119.224 25.112 118.92 25.848 118.312 26.456C117.704 27.064 116.952 27.368 116.056 27.368C115.192 27.368 114.456 27.064 113.848 26.456C113.24 25.848 112.936 25.112 112.936 24.248C112.936 22.584 112.776 21.32 112.456 20.456C112.136 19.592 111.464 19.16 110.44 19.16C109.16 19.16 108.168 20.056 107.464 21.848C106.792 23.64 106.456 26.28 106.456 29.768V29.912H109.144V30.056V31.16H106.456V50.312C106.456 50.824 106.504 51.24 106.6 51.56C106.728 51.88 106.856 52.136 106.984 52.328C107.144 52.52 107.304 52.664 107.464 52.76C107.656 52.856 107.816 52.936 107.944 53H106.456H100.552H99.0161C99.1441 52.936 99.2881 52.856 99.4481 52.76C99.6401 52.664 99.8161 52.52 99.9761 52.328C100.136 52.136 100.264 51.88 100.36 51.56C100.488 51.24 100.552 50.824 100.552 50.312V31.16H97.8161V30.056V29.912H100.552V29.768C100.552 27.72 100.808 25.96 101.32 24.488C101.832 22.984 102.536 21.752 103.432 20.792C104.36 19.832 105.432 19.128 106.648 18.68C107.864 18.2 109.16 17.96 110.536 17.96ZM156.655 52.952C156.911 52.888 157.215 52.68 157.567 52.328C157.951 51.976 158.143 51.304 158.143 50.312V33.8C158.143 33.288 158.079 32.872 157.951 32.552C157.855 32.232 157.727 31.976 157.567 31.784C157.439 31.592 157.279 31.448 157.087 31.352C156.927 31.256 156.783 31.192 156.655 31.16H164.047V50.312C164.047 51.304 164.239 51.976 164.623 52.328C165.007 52.68 165.327 52.888 165.583 52.952H156.655ZM159.727 27.944C158.511 27.304 157.327 27.608 156.175 28.856C155.055 30.104 153.983 32.488 152.959 36.008L147.919 52.952H142.063C141.647 51.544 141.183 50.008 140.671 48.344C140.191 46.648 139.695 44.936 139.183 43.208C138.703 41.448 138.207 39.72 137.695 38.024C137.215 36.328 136.767 34.776 136.351 33.368C136.159 32.664 135.823 32.136 135.343 31.784C134.863 31.432 134.479 31.224 134.191 31.16H143.071C142.815 31.224 142.559 31.48 142.303 31.928C142.079 32.376 142.079 32.968 142.303 33.704L147.343 51.08L152.383 34.088C153.631 29.992 154.927 26.904 156.271 24.824C157.615 22.744 159.231 21.704 161.119 21.704C162.015 21.704 162.783 22.024 163.423 22.664C164.063 23.304 164.383 24.072 164.383 24.968C164.383 25.896 164.063 26.68 163.423 27.32C162.783 27.928 162.015 28.232 161.119 28.232C160.639 28.232 160.175 28.136 159.727 27.944ZM175.943 50.312C175.943 50.824 175.991 51.24 176.087 51.56C176.215 51.88 176.359 52.136 176.519 52.328C176.679 52.52 176.839 52.664 176.999 52.76C177.191 52.856 177.351 52.936 177.479 53H168.551C168.679 52.936 168.823 52.856 168.983 52.76C169.175 52.664 169.335 52.52 169.463 52.328C169.623 52.136 169.751 51.88 169.847 51.56C169.975 51.24 170.039 50.824 170.039 50.312V27.224C170.039 26.712 169.975 26.296 169.847 25.976C169.751 25.656 169.623 25.4 169.463 25.208C169.335 25.016 169.175 24.872 168.983 24.776C168.823 24.648 168.679 24.568 168.551 24.536H175.943V50.312ZM179.447 53C179.575 52.936 179.719 52.856 179.879 52.76C180.071 52.664 180.247 52.52 180.407 52.328C180.567 52.136 180.695 51.88 180.791 51.56C180.919 51.24 180.983 50.824 180.983 50.312V20.648C180.983 20.136 180.919 19.72 180.791 19.4C180.695 19.08 180.567 18.824 180.407 18.632C180.247 18.44 180.071 18.296 179.879 18.2C179.719 18.072 179.575 17.992 179.447 17.96H186.887V50.312C186.887 50.824 186.935 51.24 187.031 51.56C187.159 51.88 187.287 52.136 187.415 52.328C187.575 52.52 187.735 52.664 187.895 52.76C188.087 52.856 188.247 52.936 188.375 53H179.447ZM212.03 50.312C212.03 50.824 212.078 51.24 212.174 51.56C212.302 51.88 212.446 52.136 212.606 52.328C212.766 52.52 212.926 52.664 213.086 52.76C213.246 52.856 213.39 52.936 213.518 53H212.03H209.246C208.382 53 207.646 52.904 207.038 52.712C206.462 52.488 206.174 52.056 206.174 51.416C204.158 53.048 201.806 53.864 199.118 53.864C197.838 53.864 196.686 53.688 195.662 53.336C194.638 53.016 193.758 52.584 193.022 52.04C192.318 51.496 191.774 50.856 191.39 50.12C191.038 49.384 190.862 48.616 190.862 47.816C190.862 46.376 191.23 45.224 191.966 44.36C192.734 43.464 193.678 42.744 194.798 42.2C195.95 41.656 197.182 41.224 198.494 40.904C199.806 40.552 201.022 40.2 202.142 39.848C203.294 39.464 204.238 39 204.974 38.456C205.742 37.912 206.126 37.176 206.126 36.248C206.126 35.768 206.046 35.256 205.886 34.712C205.726 34.136 205.486 33.608 205.166 33.128C204.846 32.616 204.43 32.2 203.918 31.88C203.438 31.56 202.878 31.4 202.238 31.4C201.246 31.4 200.462 31.736 199.886 32.408C199.31 33.048 199.022 34.264 199.022 36.056C199.022 36.888 198.734 37.592 198.158 38.168C197.582 38.712 196.878 38.984 196.046 38.984C195.214 38.984 194.51 38.712 193.934 38.168C193.358 37.592 193.07 36.888 193.07 36.056C193.07 35.512 193.182 34.904 193.406 34.232C193.662 33.528 194.11 32.888 194.75 32.312C195.422 31.704 196.334 31.208 197.486 30.824C198.638 30.408 200.126 30.2 201.95 30.2C203.678 30.2 205.166 30.472 206.414 31.016C207.694 31.56 208.75 32.264 209.582 33.128C210.414 33.992 211.022 34.968 211.406 36.056C211.822 37.112 212.03 38.184 212.03 39.272V50.312ZM206.126 38.936C205.838 39.32 205.486 39.64 205.07 39.896C204.654 40.12 204.19 40.344 203.678 40.568C203.198 40.76 202.67 40.968 202.094 41.192C201.518 41.416 200.91 41.704 200.27 42.056C199.374 42.536 198.606 43.192 197.966 44.024C197.326 44.856 197.006 46.024 197.006 47.528C197.006 48.648 197.278 49.576 197.822 50.312C198.398 51.016 199.118 51.496 199.982 51.752C200.878 51.976 201.854 51.96 202.91 51.704C203.998 51.416 205.07 50.856 206.126 50.024V38.936Z" fill="#3D3D3D"/>
</svg>
