<svg width="600" height="600" viewBox="0 0 600 600" fill="none" xmlns="http://www.w3.org/2000/svg">
<rect width="600" height="600" fill="#DCDCDC"/>
<path d="M242.7 309C242.892 308.928 243.132 308.772 243.42 308.532C243.708 308.268 243.852 307.764 243.852 307.02V298.056C243.852 296.544 243.564 295.344 242.988 294.456C242.436 293.544 241.728 293.088 240.864 293.088C240.48 293.088 240.108 293.148 239.748 293.268C239.412 293.388 239.1 293.544 238.812 293.736C238.548 293.904 238.308 294.084 238.092 294.276C237.9 294.444 237.756 294.6 237.66 294.744V306.984C237.66 307.368 237.696 307.68 237.768 307.92C237.864 308.16 237.972 308.352 238.092 308.496C238.212 308.64 238.332 308.748 238.452 308.82C238.596 308.892 238.716 308.952 238.812 309H232.116C232.212 308.952 232.32 308.892 232.44 308.82C232.584 308.748 232.704 308.64 232.8 308.496C232.92 308.352 233.016 308.16 233.088 307.92C233.184 307.68 233.232 307.368 233.232 306.984V294.636C233.232 294.252 233.184 293.94 233.088 293.7C233.016 293.46 232.92 293.268 232.8 293.124C232.704 292.98 232.584 292.872 232.44 292.8C232.32 292.704 232.212 292.644 232.116 292.62H237.66V293.448C238.476 292.8 239.268 292.38 240.036 292.188C240.804 291.996 241.488 291.9 242.088 291.9C242.736 291.9 243.42 292.02 244.14 292.26C244.884 292.476 245.556 292.848 246.156 293.376C246.78 293.88 247.284 294.552 247.668 295.392C248.076 296.208 248.28 297.204 248.28 298.38V306.984C248.28 307.368 248.316 307.68 248.388 307.92C248.484 308.16 248.58 308.352 248.676 308.496C248.796 308.64 248.916 308.748 249.036 308.82C249.18 308.892 249.3 308.952 249.396 309H242.7ZM259.59 291.864C260.79 291.864 261.894 292.104 262.902 292.584C263.91 293.04 264.774 293.676 265.494 294.492C266.214 295.284 266.778 296.22 267.186 297.3C267.594 298.38 267.798 299.532 267.798 300.756C267.798 301.98 267.594 303.132 267.186 304.212C266.778 305.292 266.214 306.24 265.494 307.056C264.774 307.848 263.91 308.484 262.902 308.964C261.894 309.42 260.79 309.648 259.59 309.648C258.39 309.648 257.286 309.42 256.278 308.964C255.27 308.484 254.394 307.848 253.65 307.056C252.93 306.24 252.366 305.292 251.958 304.212C251.55 303.132 251.346 301.98 251.346 300.756C251.346 299.532 251.55 298.38 251.958 297.3C252.366 296.22 252.93 295.284 253.65 294.492C254.394 293.676 255.27 293.04 256.278 292.584C257.286 292.104 258.39 291.864 259.59 291.864ZM259.59 308.748C260.262 308.748 260.826 308.496 261.282 307.992C261.738 307.464 262.098 306.816 262.362 306.048C262.65 305.256 262.854 304.392 262.974 303.456C263.094 302.52 263.154 301.62 263.154 300.756C263.154 299.892 263.094 298.992 262.974 298.056C262.854 297.12 262.65 296.268 262.362 295.5C262.098 294.708 261.738 294.06 261.282 293.556C260.826 293.052 260.262 292.8 259.59 292.8C258.918 292.8 258.354 293.052 257.898 293.556C257.442 294.06 257.07 294.708 256.782 295.5C256.494 296.268 256.29 297.12 256.17 298.056C256.05 298.992 255.99 299.892 255.99 300.756C255.99 301.62 256.05 302.52 256.17 303.456C256.29 304.392 256.494 305.256 256.782 306.048C257.07 306.816 257.442 307.464 257.898 307.992C258.354 308.496 258.918 308.748 259.59 308.748ZM305.294 309C305.486 308.928 305.714 308.772 305.978 308.532C306.266 308.268 306.41 307.764 306.41 307.02V298.056C306.41 296.544 306.182 295.344 305.726 294.456C305.294 293.544 304.682 293.088 303.89 293.088C303.338 293.088 302.822 293.292 302.342 293.7C301.862 294.108 301.478 294.504 301.19 294.888C301.382 295.368 301.526 295.896 301.622 296.472C301.742 297.024 301.802 297.66 301.802 298.38V306.984C301.802 307.368 301.838 307.68 301.91 307.92C302.006 308.16 302.102 308.352 302.198 308.496C302.318 308.64 302.438 308.748 302.558 308.82C302.702 308.892 302.822 308.952 302.918 309H296.258C296.354 308.952 296.462 308.892 296.582 308.82C296.702 308.748 296.822 308.64 296.942 308.496C297.062 308.352 297.158 308.16 297.23 307.92C297.326 307.68 297.374 307.38 297.374 307.02V298.056C297.374 296.544 297.194 295.344 296.834 294.456C296.474 293.544 295.946 293.088 295.25 293.088C295.01 293.088 294.77 293.148 294.53 293.268C294.29 293.388 294.05 293.532 293.81 293.7C293.594 293.844 293.39 294.012 293.198 294.204C293.03 294.396 292.886 294.564 292.766 294.708V306.984C292.766 307.368 292.802 307.68 292.874 307.92C292.97 308.16 293.066 308.352 293.162 308.496C293.282 308.64 293.402 308.748 293.522 308.82C293.666 308.892 293.786 308.952 293.882 309H287.222C287.414 308.928 287.642 308.76 287.906 308.496C288.194 308.232 288.338 307.728 288.338 306.984V294.636C288.338 294.252 288.29 293.94 288.194 293.7C288.122 293.46 288.026 293.268 287.906 293.124C287.786 292.98 287.666 292.872 287.546 292.8C287.426 292.704 287.318 292.644 287.222 292.62H289.67C290.318 292.62 290.834 292.524 291.218 292.332C291.626 292.116 291.83 291.756 291.83 291.252C291.83 290.748 291.77 290.172 291.65 289.524C291.53 288.852 291.278 288.228 290.894 287.652C290.534 287.076 290.018 286.596 289.346 286.212C288.698 285.804 287.834 285.6 286.754 285.6C286.466 285.6 286.178 285.636 285.89 285.708C285.602 285.78 285.362 285.9 285.17 286.068C284.978 286.236 284.834 286.44 284.738 286.68C284.666 286.896 284.678 287.172 284.774 287.508C284.798 287.628 284.81 287.796 284.81 288.012C284.81 288.708 284.57 289.296 284.09 289.776C283.61 290.232 283.034 290.46 282.362 290.46C281.666 290.46 281.078 290.232 280.598 289.776C280.142 289.296 279.914 288.708 279.914 288.012C279.914 287.34 280.058 286.752 280.346 286.248C280.658 285.72 281.054 285.276 281.534 284.916C282.038 284.556 282.614 284.292 283.262 284.124C283.91 283.932 284.594 283.836 285.314 283.836C286.418 283.836 287.426 283.992 288.338 284.304C289.25 284.616 290.03 285.084 290.678 285.708C291.35 286.332 291.866 287.112 292.226 288.048C292.586 288.96 292.766 290.028 292.766 291.252V293.52C293.462 292.848 294.158 292.416 294.854 292.224C295.574 292.008 296.174 291.9 296.654 291.9C297.446 291.9 298.202 292.068 298.922 292.404C299.666 292.74 300.278 293.292 300.758 294.06C301.334 293.292 301.97 292.74 302.666 292.404C303.386 292.068 304.118 291.9 304.862 291.9C305.51 291.9 306.182 292.02 306.878 292.26C307.598 292.476 308.246 292.848 308.822 293.376C309.398 293.88 309.878 294.552 310.262 295.392C310.646 296.208 310.838 297.204 310.838 298.38V306.984C310.838 307.368 310.874 307.68 310.946 307.92C311.042 308.16 311.15 308.352 311.27 308.496C311.39 308.64 311.51 308.748 311.63 308.82C311.75 308.892 311.858 308.952 311.954 309H305.294ZM284.558 306.984C284.558 307.368 284.594 307.68 284.666 307.92C284.762 308.16 284.87 308.352 284.99 308.496C285.11 308.64 285.23 308.748 285.35 308.82C285.494 308.892 285.614 308.952 285.71 309H279.014C279.11 308.952 279.218 308.892 279.338 308.82C279.482 308.748 279.602 308.64 279.698 308.496C279.818 308.352 279.914 308.16 279.986 307.92C280.082 307.68 280.13 307.368 280.13 306.984V294.636C280.13 294.252 280.082 293.94 279.986 293.7C279.914 293.46 279.818 293.268 279.698 293.124C279.602 292.98 279.482 292.872 279.338 292.8C279.218 292.704 279.11 292.644 279.014 292.62H284.558V306.984ZM329.729 306.984C329.729 307.368 329.765 307.68 329.837 307.92C329.933 308.16 330.041 308.352 330.161 308.496C330.281 308.64 330.401 308.748 330.521 308.82C330.641 308.892 330.749 308.952 330.845 309H329.729H327.641C326.993 309 326.441 308.928 325.985 308.784C325.553 308.616 325.337 308.292 325.337 307.812C323.825 309.036 322.061 309.648 320.045 309.648C319.085 309.648 318.221 309.516 317.453 309.252C316.685 309.012 316.025 308.688 315.473 308.28C314.945 307.872 314.537 307.392 314.249 306.84C313.985 306.288 313.853 305.712 313.853 305.112C313.853 304.032 314.129 303.168 314.681 302.52C315.257 301.848 315.965 301.308 316.805 300.9C317.669 300.492 318.593 300.168 319.577 299.928C320.561 299.664 321.473 299.4 322.313 299.136C323.177 298.848 323.885 298.5 324.437 298.092C325.013 297.684 325.301 297.132 325.301 296.436C325.301 296.076 325.241 295.692 325.121 295.284C325.001 294.852 324.821 294.456 324.581 294.096C324.341 293.712 324.029 293.4 323.645 293.16C323.285 292.92 322.865 292.8 322.385 292.8C321.641 292.8 321.053 293.052 320.621 293.556C320.189 294.036 319.973 294.948 319.973 296.292C319.973 296.916 319.757 297.444 319.325 297.876C318.893 298.284 318.365 298.488 317.741 298.488C317.117 298.488 316.589 298.284 316.157 297.876C315.725 297.444 315.509 296.916 315.509 296.292C315.509 295.884 315.593 295.428 315.761 294.924C315.953 294.396 316.289 293.916 316.769 293.484C317.273 293.028 317.957 292.656 318.821 292.368C319.685 292.056 320.801 291.9 322.169 291.9C323.465 291.9 324.581 292.104 325.517 292.512C326.477 292.92 327.269 293.448 327.893 294.096C328.517 294.744 328.973 295.476 329.261 296.292C329.573 297.084 329.729 297.888 329.729 298.704V306.984ZM325.301 298.452C325.085 298.74 324.821 298.98 324.509 299.172C324.197 299.34 323.849 299.508 323.465 299.676C323.105 299.82 322.709 299.976 322.277 300.144C321.845 300.312 321.389 300.528 320.909 300.792C320.237 301.152 319.661 301.644 319.181 302.268C318.701 302.892 318.461 303.768 318.461 304.896C318.461 305.736 318.665 306.432 319.073 306.984C319.505 307.512 320.045 307.872 320.693 308.064C321.365 308.232 322.097 308.22 322.889 308.028C323.705 307.812 324.509 307.392 325.301 306.768V298.452ZM345.425 307.848C346.145 307.848 346.829 307.92 347.477 308.064C348.125 308.208 348.689 308.448 349.169 308.784C349.673 309.096 350.069 309.504 350.357 310.008C350.669 310.512 350.825 311.124 350.825 311.844C350.825 313.02 350.465 314.064 349.745 314.976C349.049 315.888 348.125 316.656 346.973 317.28C345.845 317.904 344.561 318.372 343.121 318.684C341.681 319.02 340.229 319.188 338.765 319.188C337.517 319.188 336.461 319.056 335.597 318.792C334.733 318.552 334.025 318.228 333.473 317.82C332.921 317.436 332.513 316.992 332.249 316.488C332.009 315.984 331.889 315.48 331.889 314.976C331.889 314.352 332.105 313.824 332.537 313.392C332.969 312.96 333.497 312.744 334.121 312.744C334.745 312.744 335.261 312.96 335.669 313.392C336.101 313.824 336.317 314.352 336.317 314.976C336.317 315.504 336.425 315.936 336.641 316.272C336.881 316.632 337.193 316.908 337.577 317.1C337.985 317.316 338.453 317.46 338.981 317.532C339.533 317.628 340.133 317.676 340.781 317.676C341.789 317.676 342.773 317.556 343.733 317.316C344.717 317.1 345.581 316.788 346.325 316.38C347.069 315.972 347.669 315.48 348.125 314.904C348.581 314.328 348.809 313.692 348.809 312.996C348.809 312.492 348.581 312.144 348.125 311.952C347.693 311.784 347.165 311.7 346.541 311.7C345.965 311.7 345.353 311.748 344.705 311.844C344.057 311.964 343.385 312.084 342.689 312.204C341.993 312.324 341.273 312.432 340.529 312.528C339.785 312.648 339.029 312.708 338.261 312.708C337.541 312.708 336.869 312.624 336.245 312.456C335.621 312.288 335.069 312.048 334.589 311.736C334.133 311.424 333.761 311.052 333.473 310.62C333.209 310.188 333.077 309.708 333.077 309.18C333.077 308.196 333.353 307.404 333.905 306.804C334.481 306.18 335.201 305.7 336.065 305.364C335.057 304.74 334.253 303.936 333.653 302.952C333.053 301.944 332.753 300.732 332.753 299.316C332.753 298.116 332.981 297.06 333.437 296.148C333.893 295.212 334.505 294.432 335.273 293.808C336.041 293.184 336.917 292.716 337.901 292.404C338.885 292.092 339.917 291.936 340.997 291.936C341.549 291.936 342.077 291.972 342.581 292.044C343.109 292.116 343.625 292.248 344.129 292.44C344.129 291.672 344.249 291 344.489 290.424C344.729 289.824 345.053 289.332 345.461 288.948C345.869 288.54 346.325 288.24 346.829 288.048C347.357 287.832 347.909 287.724 348.485 287.724C349.157 287.724 349.757 287.916 350.285 288.3C350.837 288.684 351.113 289.212 351.113 289.884C351.113 290.46 350.909 290.952 350.501 291.36C350.093 291.768 349.601 291.972 349.025 291.972C348.569 291.972 348.173 291.84 347.837 291.576C347.573 291.384 347.285 291.252 346.973 291.18C346.661 291.108 346.361 291.12 346.073 291.216C345.809 291.312 345.581 291.492 345.389 291.756C345.221 291.996 345.137 292.356 345.137 292.836C346.337 293.388 347.309 294.216 348.053 295.32C348.821 296.4 349.205 297.732 349.205 299.316C349.205 300.516 348.977 301.584 348.521 302.52C348.065 303.432 347.453 304.2 346.685 304.824C345.941 305.448 345.065 305.916 344.057 306.228C343.073 306.54 342.053 306.696 340.997 306.696C340.709 306.696 340.421 306.684 340.133 306.66C339.845 306.636 339.569 306.6 339.305 306.552C338.705 306.48 338.129 306.456 337.577 306.48C337.049 306.504 336.581 306.576 336.173 306.696C335.765 306.792 335.441 306.936 335.201 307.128C334.961 307.32 334.841 307.548 334.841 307.812C334.841 308.196 335.105 308.46 335.633 308.604C336.161 308.724 336.737 308.784 337.361 308.784C337.721 308.784 338.213 308.736 338.837 308.64C339.461 308.544 340.145 308.436 340.889 308.316C341.633 308.196 342.401 308.088 343.193 307.992C343.985 307.896 344.729 307.848 345.425 307.848ZM340.997 292.8C340.373 292.8 339.833 293.004 339.377 293.412C338.921 293.796 338.549 294.3 338.261 294.924C337.973 295.548 337.757 296.244 337.613 297.012C337.469 297.78 337.397 298.548 337.397 299.316C337.397 300.324 337.517 301.32 337.757 302.304C337.997 303.288 338.369 304.104 338.873 304.752C339.449 304.68 340.013 304.644 340.565 304.644C340.733 304.644 341.045 304.68 341.501 304.752C341.957 304.8 342.389 304.896 342.797 305.04C343.397 304.44 343.841 303.612 344.129 302.556C344.417 301.476 344.561 300.396 344.561 299.316C344.561 298.548 344.489 297.78 344.345 297.012C344.201 296.244 343.985 295.548 343.697 294.924C343.409 294.3 343.037 293.796 342.581 293.412C342.149 293.004 341.621 292.8 340.997 292.8ZM367.266 298.056C367.266 299.016 366.942 299.772 366.294 300.324C365.646 300.852 364.842 301.116 363.882 301.116H356.502C356.526 302.22 356.658 303.228 356.898 304.14C357.162 305.052 357.51 305.832 357.942 306.48C358.398 307.128 358.938 307.632 359.562 307.992C360.186 308.328 360.882 308.496 361.65 308.496C361.986 308.496 362.346 308.46 362.73 308.388C363.114 308.292 363.498 308.148 363.882 307.956C364.29 307.764 364.674 307.5 365.034 307.164C365.394 306.828 365.694 306.396 365.934 305.868C365.934 306.252 365.826 306.672 365.61 307.128C365.394 307.56 365.046 307.968 364.566 308.352C364.11 308.736 363.51 309.048 362.766 309.288C362.046 309.552 361.182 309.684 360.174 309.684C359.142 309.684 358.122 309.504 357.114 309.144C356.106 308.784 355.218 308.232 354.45 307.488C353.682 306.744 353.058 305.82 352.578 304.716C352.098 303.588 351.858 302.268 351.858 300.756C351.858 299.22 352.11 297.9 352.614 296.796C353.118 295.668 353.766 294.744 354.558 294.024C355.374 293.304 356.286 292.776 357.294 292.44C358.326 292.08 359.358 291.9 360.39 291.9C361.446 291.9 362.394 292.044 363.234 292.332C364.098 292.62 364.818 293.04 365.394 293.592C365.994 294.12 366.45 294.768 366.762 295.536C367.098 296.28 367.266 297.12 367.266 298.056ZM363.846 300.18C363.846 299.388 363.786 298.56 363.666 297.696C363.57 296.808 363.39 296.004 363.126 295.284C362.862 294.564 362.502 293.976 362.046 293.52C361.614 293.04 361.05 292.8 360.354 292.8C359.898 292.8 359.442 292.956 358.986 293.268C358.554 293.58 358.158 294.048 357.798 294.672C357.438 295.296 357.138 296.064 356.898 296.976C356.682 297.888 356.55 298.956 356.502 300.18H363.846Z" fill="black"/>
</svg>
